<svg width="220" height="40" viewBox="0 0 220 40" fill="none" xmlns="http://www.w3.org/2000/svg">
<rect y="16" width="220" height="8" fill="#FFC700"/>
<path d="M40.1798 27V14.22H50.8178V27H47.8658V16.812H43.1318V27H40.1798ZM62.5249 27.108C61.5649 27.108 60.6949 26.928 59.9149 26.568C59.1469 26.196 58.4809 25.704 57.9169 25.092C57.3649 24.468 56.9389 23.772 56.6389 23.004C56.3389 22.224 56.1889 21.42 56.1889 20.592C56.1889 19.74 56.3449 18.93 56.6569 18.162C56.9809 17.394 57.4249 16.71 57.9889 16.11C58.5649 15.498 59.2429 15.018 60.0229 14.67C60.8029 14.322 61.6549 14.148 62.5789 14.148C63.5269 14.148 64.3849 14.334 65.1529 14.706C65.9329 15.066 66.5989 15.558 67.1509 16.182C67.7149 16.806 68.1469 17.508 68.4469 18.288C68.7469 19.056 68.8969 19.842 68.8969 20.646C68.8969 21.498 68.7409 22.308 68.4289 23.076C68.1169 23.844 67.6729 24.534 67.0969 25.146C66.5209 25.746 65.8429 26.226 65.0629 26.586C64.2949 26.934 63.4489 27.108 62.5249 27.108ZM59.1949 20.628C59.1949 21.12 59.2669 21.6 59.4109 22.068C59.5549 22.524 59.7649 22.932 60.0409 23.292C60.3289 23.652 60.6829 23.94 61.1029 24.156C61.5229 24.372 62.0029 24.48 62.5429 24.48C63.1069 24.48 63.5989 24.372 64.0189 24.156C64.4389 23.928 64.7869 23.628 65.0629 23.256C65.3389 22.884 65.5429 22.47 65.6749 22.014C65.8189 21.546 65.8909 21.072 65.8909 20.592C65.8909 20.1 65.8189 19.626 65.6749 19.17C65.5309 18.714 65.3149 18.306 65.0269 17.946C64.7389 17.574 64.3849 17.286 63.9649 17.082C63.5449 16.878 63.0709 16.776 62.5429 16.776C61.9789 16.776 61.4869 16.884 61.0669 17.1C60.6589 17.316 60.3109 17.61 60.0229 17.982C59.7469 18.342 59.5369 18.756 59.3929 19.224C59.2609 19.68 59.1949 20.148 59.1949 20.628ZM73.4827 29.448V24.408H74.2027C74.5147 24.408 74.7847 24.288 75.0127 24.048C75.2527 23.796 75.4567 23.412 75.6247 22.896C75.7927 22.368 75.9247 21.696 76.0207 20.88C76.1167 20.052 76.1827 19.062 76.2187 17.91L76.3267 14.22H85.1827V24.408H86.9287V29.448H84.3367V27H76.0567V29.448H73.4827ZM77.6587 24.408H82.2307V16.812H79.0087L78.9727 18.324C78.9487 19.416 78.8887 20.364 78.7927 21.168C78.7087 21.96 78.5767 22.626 78.3967 23.166C78.2167 23.694 77.9707 24.108 77.6587 24.408ZM92.3047 27V14.22H97.7587C98.3707 14.22 98.9287 14.346 99.4327 14.598C99.9487 14.838 100.393 15.168 100.765 15.588C101.137 15.996 101.425 16.458 101.629 16.974C101.833 17.49 101.935 18.018 101.935 18.558C101.935 19.29 101.761 19.986 101.413 20.646C101.077 21.306 100.603 21.846 99.9907 22.266C99.3907 22.674 98.6767 22.878 97.8487 22.878H95.2567V27H92.3047ZM95.2567 20.304H97.6687C97.8967 20.304 98.1067 20.238 98.2987 20.106C98.4907 19.974 98.6467 19.776 98.7667 19.512C98.8867 19.248 98.9467 18.924 98.9467 18.54C98.9467 18.144 98.8747 17.82 98.7307 17.568C98.5987 17.304 98.4247 17.112 98.2087 16.992C98.0047 16.872 97.7887 16.812 97.5607 16.812H95.2567V20.304ZM112.718 27.108C111.758 27.108 110.888 26.928 110.108 26.568C109.34 26.196 108.674 25.704 108.11 25.092C107.558 24.468 107.132 23.772 106.832 23.004C106.532 22.224 106.382 21.42 106.382 20.592C106.382 19.74 106.538 18.93 106.85 18.162C107.174 17.394 107.618 16.71 108.182 16.11C108.758 15.498 109.436 15.018 110.216 14.67C110.996 14.322 111.848 14.148 112.772 14.148C113.72 14.148 114.578 14.334 115.346 14.706C116.126 15.066 116.792 15.558 117.344 16.182C117.908 16.806 118.34 17.508 118.64 18.288C118.94 19.056 119.09 19.842 119.09 20.646C119.09 21.498 118.934 22.308 118.622 23.076C118.31 23.844 117.866 24.534 117.29 25.146C116.714 25.746 116.036 26.226 115.256 26.586C114.488 26.934 113.642 27.108 112.718 27.108ZM109.388 20.628C109.388 21.12 109.46 21.6 109.604 22.068C109.748 22.524 109.958 22.932 110.234 23.292C110.522 23.652 110.876 23.94 111.296 24.156C111.716 24.372 112.196 24.48 112.736 24.48C113.3 24.48 113.792 24.372 114.212 24.156C114.632 23.928 114.98 23.628 115.256 23.256C115.532 22.884 115.736 22.47 115.868 22.014C116.012 21.546 116.084 21.072 116.084 20.592C116.084 20.1 116.012 19.626 115.868 19.17C115.724 18.714 115.508 18.306 115.22 17.946C114.932 17.574 114.578 17.286 114.158 17.082C113.738 16.878 113.264 16.776 112.736 16.776C112.172 16.776 111.68 16.884 111.26 17.1C110.852 17.316 110.504 17.61 110.216 17.982C109.94 18.342 109.73 18.756 109.586 19.224C109.454 19.68 109.388 20.148 109.388 20.628ZM124.449 27V14.22H133.917V16.758H127.401V19.314H130.551C132.003 19.314 133.095 19.656 133.827 20.34C134.571 21.012 134.943 21.924 134.943 23.076C134.943 23.868 134.781 24.558 134.457 25.146C134.145 25.734 133.677 26.19 133.053 26.514C132.429 26.838 131.649 27 130.713 27H124.449ZM127.401 24.462H130.299C130.695 24.462 131.007 24.39 131.235 24.246C131.475 24.102 131.643 23.922 131.739 23.706C131.847 23.478 131.901 23.238 131.901 22.986C131.901 22.746 131.853 22.518 131.757 22.302C131.673 22.086 131.511 21.918 131.271 21.798C131.031 21.666 130.695 21.6 130.263 21.6H127.401V24.462ZM151.122 14.22V27H148.17V21.762H143.076V27H140.124V14.22H143.076V19.17H148.17V14.22H151.122ZM166.153 24.408V27H157.171V14.22H165.991V16.812H160.123V19.296H165.163V21.69H160.123V24.408H166.153ZM180.529 24.408V27H171.547V14.22H180.367V16.812H174.499V19.296H179.539V21.69H174.499V24.408H180.529Z" fill="black"/>
</svg>
