<svg width="160" height="253" viewBox="0 0 160 253" fill="none" xmlns="http://www.w3.org/2000/svg">
<rect width="160" height="160" fill="#FFE17F"/>
<path d="M5.886 211.108C5.022 211.108 4.254 210.988 3.582 210.748C2.91 210.496 2.328 210.148 1.836 209.704C1.344 209.248 0.918 208.732 0.558 208.156L3.006 206.716C3.198 207.076 3.432 207.388 3.708 207.652C3.984 207.916 4.308 208.12 4.68 208.264C5.052 208.408 5.46 208.48 5.904 208.48C6.456 208.48 6.936 208.384 7.344 208.192C7.764 208 8.118 207.73 8.406 207.382C8.694 207.034 8.91 206.638 9.054 206.194C9.198 205.738 9.276 205.252 9.288 204.736L10.458 205.528H4.878V203.422H10.404L9.27 204.178C9.246 203.71 9.156 203.272 9 202.864C8.844 202.456 8.622 202.096 8.334 201.784C8.058 201.472 7.716 201.226 7.308 201.046C6.9 200.866 6.432 200.776 5.904 200.776C5.46 200.776 5.052 200.848 4.68 200.992C4.308 201.136 3.984 201.34 3.708 201.604C3.432 201.868 3.204 202.186 3.024 202.558L0.702 200.92C1.242 200.104 1.926 199.438 2.754 198.922C3.582 198.406 4.644 198.148 5.94 198.148C6.948 198.148 7.848 198.328 8.64 198.688C9.432 199.048 10.098 199.534 10.638 200.146C11.178 200.746 11.592 201.436 11.88 202.216C12.168 202.984 12.312 203.794 12.312 204.646C12.312 205.51 12.162 206.332 11.862 207.112C11.562 207.892 11.13 208.582 10.566 209.182C10.002 209.782 9.324 210.256 8.532 210.604C7.752 210.94 6.87 211.108 5.886 211.108ZM13.357 211V201.55H16.219V204.934H16.903L19.243 201.55H22.339L19.099 206.086L22.681 211H19.387L16.849 207.436H16.219V211H13.357ZM23.7724 211V201.55H26.6524V208.498H29.2624V201.55H32.1424V208.498H34.7524V201.55H37.6324V211H23.7724ZM39.2854 211V201.55H42.1654V204.97H45.3874V201.55H48.2674V211H45.3874V207.346H42.1654V211H39.2854ZM49.8933 207.346V204.754H55.4373V207.346H49.8933ZM57.0576 211V201.55H59.9196V204.934H60.6036L62.9436 201.55H66.0396L62.7996 206.086L66.3816 211H63.0876L60.5496 207.436H59.9196V211H57.0576ZM66.7204 208.174C66.7204 207.55 66.8944 207.004 67.2424 206.536C67.5904 206.068 68.0704 205.702 68.6824 205.438C69.2944 205.162 69.9964 205.024 70.7884 205.024C71.1724 205.024 71.5504 205.06 71.9224 205.132C72.2944 205.192 72.6184 205.282 72.8944 205.402V204.988C72.8944 204.472 72.7384 204.076 72.4264 203.8C72.1144 203.524 71.6404 203.386 71.0044 203.386C70.4764 203.386 69.9784 203.476 69.5104 203.656C69.0544 203.836 68.5684 204.094 68.0524 204.43L67.1884 202.594C67.8124 202.186 68.4604 201.88 69.1324 201.676C69.8164 201.472 70.5364 201.37 71.2924 201.37C72.7084 201.37 73.8064 201.712 74.5864 202.396C75.3784 203.068 75.7744 204.046 75.7744 205.33V207.796C75.7744 208.084 75.8164 208.288 75.9004 208.408C75.9964 208.516 76.1584 208.582 76.3864 208.606V211C76.1464 211.048 75.9184 211.084 75.7024 211.108C75.4984 211.132 75.3184 211.144 75.1624 211.144C74.6224 211.144 74.2084 211.036 73.9204 210.82C73.6444 210.604 73.4704 210.31 73.3984 209.938L73.3444 209.524C72.9244 210.064 72.4204 210.478 71.8324 210.766C71.2564 211.042 70.6504 211.18 70.0144 211.18C69.3904 211.18 68.8264 211.048 68.3224 210.784C67.8304 210.52 67.4404 210.16 67.1524 209.704C66.8644 209.248 66.7204 208.738 66.7204 208.174ZM72.4444 208.534C72.5764 208.426 72.6844 208.306 72.7684 208.174C72.8524 208.042 72.8944 207.916 72.8944 207.796V206.95C72.6544 206.854 72.3844 206.782 72.0844 206.734C71.7964 206.674 71.5264 206.644 71.2744 206.644C70.7464 206.644 70.3084 206.764 69.9604 207.004C69.6124 207.232 69.4384 207.538 69.4384 207.922C69.4384 208.138 69.4984 208.336 69.6184 208.516C69.7384 208.696 69.9004 208.84 70.1044 208.948C70.3204 209.056 70.5724 209.11 70.8604 209.11C71.1484 209.11 71.4364 209.056 71.7244 208.948C72.0124 208.84 72.2524 208.702 72.4444 208.534ZM77.5193 211V201.55H80.5253L83.1893 206.608L85.8533 201.55H88.8413V211H86.1053V205.474L84.0713 209.344H82.2893L80.2553 205.474V211H77.5193ZM95.0011 211.18C94.197 211.18 93.483 211.054 92.859 210.802C92.235 210.538 91.701 210.184 91.257 209.74C90.825 209.296 90.495 208.786 90.267 208.21C90.039 207.622 89.925 207.01 89.925 206.374C89.925 205.462 90.123 204.634 90.519 203.89C90.927 203.134 91.509 202.528 92.265 202.072C93.021 201.604 93.933 201.37 95.0011 201.37C96.069 201.37 96.975 201.598 97.719 202.054C98.4751 202.51 99.0511 203.11 99.4471 203.854C99.8431 204.586 100.041 205.384 100.041 206.248C100.041 206.416 100.029 206.584 100.005 206.752C99.993 206.908 99.981 207.046 99.969 207.166H92.985C93.021 207.586 93.135 207.94 93.327 208.228C93.531 208.516 93.789 208.738 94.101 208.894C94.413 209.038 94.743 209.11 95.091 209.11C95.523 209.11 95.925 209.008 96.297 208.804C96.6811 208.6 96.9451 208.324 97.089 207.976L99.5371 208.66C99.2971 209.152 98.9551 209.59 98.5111 209.974C98.0791 210.346 97.5631 210.64 96.9631 210.856C96.3751 211.072 95.7211 211.18 95.0011 211.18ZM92.913 205.402H97.017C96.9691 205.006 96.8551 204.664 96.675 204.376C96.495 204.076 96.255 203.848 95.9551 203.692C95.6551 203.524 95.325 203.44 94.965 203.44C94.593 203.44 94.257 203.524 93.957 203.692C93.669 203.848 93.435 204.076 93.255 204.376C93.075 204.664 92.961 205.006 92.913 205.402ZM106.962 211.18C106.254 211.18 105.636 211.03 105.108 210.73C104.58 210.418 104.166 209.998 103.866 209.47V214.834H100.986V201.55H103.488V203.08C103.836 202.54 104.274 202.12 104.802 201.82C105.33 201.52 105.948 201.37 106.656 201.37C107.292 201.37 107.874 201.496 108.402 201.748C108.942 202 109.41 202.348 109.806 202.792C110.202 203.236 110.508 203.752 110.724 204.34C110.94 204.928 111.048 205.564 111.048 206.248C111.048 207.184 110.874 208.024 110.526 208.768C110.178 209.512 109.692 210.1 109.068 210.532C108.456 210.964 107.754 211.18 106.962 211.18ZM105.99 208.75C106.302 208.75 106.584 208.684 106.836 208.552C107.1 208.408 107.328 208.222 107.52 207.994C107.712 207.766 107.856 207.502 107.952 207.202C108.06 206.89 108.114 206.566 108.114 206.23C108.114 205.882 108.054 205.564 107.934 205.276C107.826 204.988 107.67 204.736 107.466 204.52C107.262 204.292 107.022 204.118 106.746 203.998C106.47 203.878 106.17 203.818 105.846 203.818C105.654 203.818 105.456 203.848 105.252 203.908C105.06 203.968 104.874 204.058 104.694 204.178C104.526 204.286 104.37 204.418 104.226 204.574C104.082 204.73 103.962 204.91 103.866 205.114V207.058C103.998 207.382 104.172 207.67 104.388 207.922C104.604 208.174 104.85 208.378 105.126 208.534C105.402 208.678 105.69 208.75 105.99 208.75ZM112.158 211V201.55H115.038V204.376H116.568C117.708 204.376 118.584 204.676 119.196 205.276C119.82 205.864 120.132 206.638 120.132 207.598C120.132 208.27 120 208.864 119.736 209.38C119.484 209.896 119.106 210.298 118.602 210.586C118.098 210.862 117.48 211 116.748 211H112.158ZM115.038 208.822H116.28C116.544 208.822 116.76 208.774 116.928 208.678C117.108 208.57 117.24 208.426 117.324 208.246C117.408 208.054 117.45 207.844 117.45 207.616C117.45 207.388 117.408 207.19 117.324 207.022C117.24 206.842 117.108 206.698 116.928 206.59C116.76 206.482 116.538 206.428 116.262 206.428H115.038V208.822ZM121.554 211V201.55H124.434V211H121.554Z" fill="black"/>
<path d="M97.349 38.49C97.349 37.754 96.771 37 96.038 37H53.053C52.32 37 51.672 37.754 51.672 38.49V42.012H97.348L97.349 38.49Z" fill="#363636"/>
<path d="M98.202 118.809H88.605V108.426H81.647V110.933H62.774C62.237 109.679 61.017 108.785 59.593 108.785H47.559C45.642 108.784 44 110.387 44 112.311V115.329C44 117.253 45.642 118.809 47.559 118.809H59.594C61.105 118.809 62.386 117.913 62.863 116.483H81.648V118.809H72.13C71.597 118.809 71.12 119.246 71.12 119.781V122.953C71.12 123.488 71.598 124.001 72.13 124.001H98.202C98.735 124.001 99.132 123.488 99.132 122.953V119.78C99.132 119.245 98.735 118.809 98.202 118.809Z" fill="#363636"/>
<path d="M104.666 49.39C103.805 46.453 101.099 44.34 97.895 44.34H51.148C47.25 44.34 44 47.449 44 51.361V98.261C44 102.173 47.25 105.382 51.148 105.382H97.895C101.793 105.382 105.021 102.173 105.021 98.261V87.915C111.087 83.711 115.022 76.704 115.022 68.751C115.021 60.672 110.89 53.57 104.666 49.39ZM56.238 99.151C52.979 99.151 50.337 96.501 50.337 93.23C50.337 89.96 52.979 87.308 56.238 87.308C59.497 87.308 62.14 89.96 62.14 93.23C62.14 96.501 59.497 99.151 56.238 99.151ZM62.199 66.546C62.199 67.332 61.564 67.968 60.781 67.968H51.841C51.058 67.968 50.423 67.331 50.423 66.546V52.386C50.423 51.6 51.058 50.963 51.841 50.963H60.78C61.563 50.963 62.198 51.6 62.198 52.386L62.199 66.546ZM91.762 88.858C80.686 88.858 71.705 79.848 71.705 68.735C71.705 57.622 80.685 48.611 91.762 48.611C102.839 48.611 111.82 57.621 111.82 68.735C111.82 79.849 102.839 88.858 91.762 88.858Z" fill="#363636"/>
<path d="M91.762 80.964C98.4932 80.964 103.95 75.4889 103.95 68.735C103.95 61.9811 98.4932 56.506 91.762 56.506C85.0308 56.506 79.574 61.9811 79.574 68.735C79.574 75.4889 85.0308 80.964 91.762 80.964Z" fill="#363636"/>
<path d="M75.562 70.171C76.3545 70.171 76.997 69.5285 76.997 68.736C76.997 67.9435 76.3545 67.301 75.562 67.301C74.7695 67.301 74.127 67.9435 74.127 68.736C74.127 69.5285 74.7695 70.171 75.562 70.171Z" fill="#363636"/>
<path d="M107.963 70.171C108.756 70.171 109.398 69.5285 109.398 68.736C109.398 67.9435 108.756 67.301 107.963 67.301C107.17 67.301 106.528 67.9435 106.528 68.736C106.528 69.5285 107.17 70.171 107.963 70.171Z" fill="#363636"/>
<path d="M83.109 56.429C83.9015 56.429 84.544 55.7865 84.544 54.994C84.544 54.2015 83.9015 53.559 83.109 53.559C82.3165 53.559 81.674 54.2015 81.674 54.994C81.674 55.7865 82.3165 56.429 83.109 56.429Z" fill="#363636"/>
<path d="M100.415 83.912C101.205 83.912 101.845 83.2691 101.845 82.476C101.845 81.6829 101.205 81.04 100.415 81.04C99.6252 81.04 98.985 81.6829 98.985 82.476C98.985 83.2691 99.6252 83.912 100.415 83.912Z" fill="#363636"/>
<path d="M99.697 56C100.49 56 101.132 55.3575 101.132 54.565C101.132 53.7725 100.49 53.13 99.697 53.13C98.9045 53.13 98.262 53.7725 98.262 54.565C98.262 55.3575 98.9045 56 99.697 56Z" fill="#363636"/>
<path d="M83.828 84.341C84.6205 84.341 85.263 83.6985 85.263 82.906C85.263 82.1135 84.6205 81.471 83.828 81.471C83.0355 81.471 82.393 82.1135 82.393 82.906C82.393 83.6985 83.0355 84.341 83.828 84.341Z" fill="#363636"/>
</svg>
