<svg width="160" height="253" viewBox="0 0 160 253" fill="none" xmlns="http://www.w3.org/2000/svg">
<rect width="160" height="160" fill="#FFE17F"/>
<path d="M1.278 211V198.22H4.212V203.17H5.22L8.784 198.22H12.06L7.488 204.394L12.456 211H8.874L5.13 205.852H4.212V211H1.278ZM13.4097 211V201.55H18.8817C19.5777 201.55 20.1357 201.658 20.5557 201.874C20.9877 202.09 21.2997 202.372 21.4917 202.72C21.6837 203.056 21.7797 203.428 21.7797 203.836C21.7797 204.376 21.6597 204.838 21.4197 205.222C21.1917 205.606 20.8257 205.912 20.3217 206.14C20.8737 206.296 21.3237 206.56 21.6717 206.932C22.0317 207.292 22.2117 207.79 22.2117 208.426C22.2117 209.05 22.0617 209.554 21.7617 209.938C21.4737 210.31 21.0537 210.58 20.5017 210.748C19.9617 210.916 19.3077 211 18.5397 211H13.4097ZM16.1457 209.074H18.4497C18.6297 209.074 18.7917 209.032 18.9357 208.948C19.0917 208.864 19.2117 208.75 19.2957 208.606C19.3797 208.45 19.4217 208.282 19.4217 208.102C19.4217 207.898 19.3797 207.724 19.2957 207.58C19.2237 207.436 19.1097 207.322 18.9537 207.238C18.8097 207.154 18.6477 207.112 18.4677 207.112H16.1457V209.074ZM16.1457 205.348H18.1617C18.3417 205.348 18.5037 205.306 18.6477 205.222C18.7917 205.138 18.8997 205.024 18.9717 204.88C19.0437 204.724 19.0797 204.556 19.0797 204.376C19.0797 204.124 18.9957 203.914 18.8277 203.746C18.6597 203.566 18.4437 203.476 18.1797 203.476H16.1457V205.348ZM22.8615 208.174C22.8615 207.55 23.0355 207.004 23.3835 206.536C23.7315 206.068 24.2115 205.702 24.8235 205.438C25.4355 205.162 26.1375 205.024 26.9295 205.024C27.3135 205.024 27.6915 205.06 28.0635 205.132C28.4355 205.192 28.7595 205.282 29.0355 205.402V204.988C29.0355 204.472 28.8795 204.076 28.5675 203.8C28.2555 203.524 27.7815 203.386 27.1455 203.386C26.6175 203.386 26.1195 203.476 25.6515 203.656C25.1955 203.836 24.7095 204.094 24.1935 204.43L23.3295 202.594C23.9535 202.186 24.6015 201.88 25.2735 201.676C25.9575 201.472 26.6775 201.37 27.4335 201.37C28.8495 201.37 29.9475 201.712 30.7275 202.396C31.5195 203.068 31.9155 204.046 31.9155 205.33V207.796C31.9155 208.084 31.9575 208.288 32.0415 208.408C32.1375 208.516 32.2995 208.582 32.5275 208.606V211C32.2875 211.048 32.0595 211.084 31.8435 211.108C31.6395 211.132 31.4595 211.144 31.3035 211.144C30.7635 211.144 30.3495 211.036 30.0615 210.82C29.7855 210.604 29.6115 210.31 29.5395 209.938L29.4855 209.524C29.0655 210.064 28.5615 210.478 27.9735 210.766C27.3975 211.042 26.7915 211.18 26.1555 211.18C25.5315 211.18 24.9675 211.048 24.4635 210.784C23.9715 210.52 23.5815 210.16 23.2935 209.704C23.0055 209.248 22.8615 208.738 22.8615 208.174ZM28.5855 208.534C28.7175 208.426 28.8255 208.306 28.9095 208.174C28.9935 208.042 29.0355 207.916 29.0355 207.796V206.95C28.7955 206.854 28.5255 206.782 28.2255 206.734C27.9375 206.674 27.6675 206.644 27.4155 206.644C26.8875 206.644 26.4495 206.764 26.1015 207.004C25.7535 207.232 25.5795 207.538 25.5795 207.922C25.5795 208.138 25.6395 208.336 25.7595 208.516C25.8795 208.696 26.0415 208.84 26.2455 208.948C26.4615 209.056 26.7135 209.11 27.0015 209.11C27.2895 209.11 27.5775 209.056 27.8655 208.948C28.1535 208.84 28.3935 208.702 28.5855 208.534ZM33.0304 213.322V208.498H33.3184C33.5344 208.498 33.7444 208.444 33.9484 208.336C34.1524 208.216 34.3324 208.018 34.4884 207.742C34.6444 207.466 34.7704 207.076 34.8664 206.572C34.9744 206.068 35.0404 205.426 35.0644 204.646L35.1904 201.55H42.6424V208.498H43.9924V213.322H41.4724V211H35.5504V213.322H33.0304ZM36.8104 208.498H39.7624V203.944H37.7104L37.6564 204.952C37.6204 205.612 37.5664 206.176 37.4944 206.644C37.4344 207.112 37.3444 207.496 37.2244 207.796C37.1164 208.084 36.9784 208.318 36.8104 208.498ZM51.0709 211.18C50.3629 211.18 49.7449 211.03 49.2169 210.73C48.6889 210.418 48.2749 209.998 47.9749 209.47V214.834H45.0949V201.55H47.5969V203.08C47.9449 202.54 48.3829 202.12 48.9109 201.82C49.4389 201.52 50.0569 201.37 50.7649 201.37C51.4009 201.37 51.9829 201.496 52.5109 201.748C53.0509 202 53.5189 202.348 53.9149 202.792C54.3109 203.236 54.6169 203.752 54.8329 204.34C55.0489 204.928 55.1569 205.564 55.1569 206.248C55.1569 207.184 54.9829 208.024 54.6349 208.768C54.2869 209.512 53.8009 210.1 53.1769 210.532C52.5649 210.964 51.8629 211.18 51.0709 211.18ZM50.0989 208.75C50.4109 208.75 50.6929 208.684 50.9449 208.552C51.2089 208.408 51.4369 208.222 51.6289 207.994C51.8209 207.766 51.9649 207.502 52.0609 207.202C52.1689 206.89 52.2229 206.566 52.2229 206.23C52.2229 205.882 52.1629 205.564 52.0429 205.276C51.9349 204.988 51.7789 204.736 51.5749 204.52C51.3709 204.292 51.1309 204.118 50.8549 203.998C50.5789 203.878 50.2789 203.818 49.9549 203.818C49.7629 203.818 49.5649 203.848 49.3609 203.908C49.1689 203.968 48.9829 204.058 48.8029 204.178C48.6349 204.286 48.4789 204.418 48.3349 204.574C48.1909 204.73 48.0709 204.91 47.9749 205.114V207.058C48.1069 207.382 48.2809 207.67 48.4969 207.922C48.7129 208.174 48.9589 208.378 49.2349 208.534C49.5109 208.678 49.7989 208.75 50.0989 208.75ZM60.7486 211.18C59.9446 211.18 59.2246 211.048 58.5886 210.784C57.9646 210.52 57.4366 210.16 57.0046 209.704C56.5726 209.248 56.2426 208.726 56.0146 208.138C55.7986 207.55 55.6906 206.932 55.6906 206.284C55.6906 205.624 55.7986 205 56.0146 204.412C56.2426 203.824 56.5726 203.302 57.0046 202.846C57.4366 202.39 57.9646 202.03 58.5886 201.766C59.2246 201.502 59.9446 201.37 60.7486 201.37C61.5526 201.37 62.2666 201.502 62.8906 201.766C63.5146 202.03 64.0426 202.39 64.4746 202.846C64.9066 203.302 65.2366 203.824 65.4646 204.412C65.6926 205 65.8066 205.624 65.8066 206.284C65.8066 206.932 65.6926 207.55 65.4646 208.138C65.2366 208.726 64.9066 209.248 64.4746 209.704C64.0426 210.16 63.5146 210.52 62.8906 210.784C62.2666 211.048 61.5526 211.18 60.7486 211.18ZM58.6426 206.284C58.6426 206.776 58.7326 207.208 58.9126 207.58C59.1046 207.952 59.3566 208.24 59.6686 208.444C59.9806 208.648 60.3406 208.75 60.7486 208.75C61.1446 208.75 61.4986 208.648 61.8106 208.444C62.1346 208.228 62.3866 207.934 62.5666 207.562C62.7466 207.19 62.8366 206.764 62.8366 206.284C62.8366 205.792 62.7466 205.36 62.5666 204.988C62.3866 204.616 62.1346 204.328 61.8106 204.124C61.4986 203.92 61.1446 203.818 60.7486 203.818C60.3406 203.818 59.9806 203.92 59.6686 204.124C59.3566 204.328 59.1046 204.616 58.9126 204.988C58.7326 205.36 58.6426 205.792 58.6426 206.284ZM66.8929 211V201.55H69.7549V204.934H70.4389L72.7789 201.55H75.8749L72.6349 206.086L76.2169 211H72.9229L70.3849 207.436H69.7549V211H66.8929ZM81.3157 211.18C80.5117 211.18 79.7917 211.048 79.1557 210.784C78.5317 210.52 78.0037 210.16 77.5717 209.704C77.1397 209.248 76.8097 208.726 76.5817 208.138C76.3657 207.55 76.2577 206.932 76.2577 206.284C76.2577 205.624 76.3657 205 76.5817 204.412C76.8097 203.824 77.1397 203.302 77.5717 202.846C78.0037 202.39 78.5317 202.03 79.1557 201.766C79.7917 201.502 80.5117 201.37 81.3157 201.37C82.1197 201.37 82.8337 201.502 83.4577 201.766C84.0817 202.03 84.6097 202.39 85.0417 202.846C85.4737 203.302 85.8037 203.824 86.0317 204.412C86.2597 205 86.3737 205.624 86.3737 206.284C86.3737 206.932 86.2597 207.55 86.0317 208.138C85.8037 208.726 85.4737 209.248 85.0417 209.704C84.6097 210.16 84.0817 210.52 83.4577 210.784C82.8337 211.048 82.1197 211.18 81.3157 211.18ZM79.2097 206.284C79.2097 206.776 79.2997 207.208 79.4797 207.58C79.6717 207.952 79.9237 208.24 80.2357 208.444C80.5477 208.648 80.9077 208.75 81.3157 208.75C81.7117 208.75 82.0657 208.648 82.3777 208.444C82.7017 208.228 82.9537 207.934 83.1337 207.562C83.3137 207.19 83.4037 206.764 83.4037 206.284C83.4037 205.792 83.3137 205.36 83.1337 204.988C82.9537 204.616 82.7017 204.328 82.3777 204.124C82.0657 203.92 81.7117 203.818 81.3157 203.818C80.9077 203.818 80.5477 203.92 80.2357 204.124C79.9237 204.328 79.6717 204.616 79.4797 204.988C79.2997 205.36 79.2097 205.792 79.2097 206.284ZM87.46 211V201.55H96.298V211H93.418V204.07H90.34V211H87.46ZM100.052 211V204.07H97.1897V201.55H105.794V204.07H102.932V211H100.052ZM111.174 211.18C110.37 211.18 109.656 211.054 109.032 210.802C108.408 210.538 107.874 210.184 107.43 209.74C106.998 209.296 106.668 208.786 106.44 208.21C106.212 207.622 106.098 207.01 106.098 206.374C106.098 205.462 106.296 204.634 106.692 203.89C107.1 203.134 107.682 202.528 108.438 202.072C109.194 201.604 110.106 201.37 111.174 201.37C112.242 201.37 113.148 201.598 113.892 202.054C114.648 202.51 115.224 203.11 115.62 203.854C116.016 204.586 116.214 205.384 116.214 206.248C116.214 206.416 116.202 206.584 116.178 206.752C116.166 206.908 116.154 207.046 116.142 207.166H109.158C109.194 207.586 109.308 207.94 109.5 208.228C109.704 208.516 109.962 208.738 110.274 208.894C110.586 209.038 110.916 209.11 111.264 209.11C111.696 209.11 112.098 209.008 112.47 208.804C112.854 208.6 113.118 208.324 113.262 207.976L115.71 208.66C115.47 209.152 115.128 209.59 114.684 209.974C114.252 210.346 113.736 210.64 113.136 210.856C112.548 211.072 111.894 211.18 111.174 211.18ZM109.086 205.402H113.19C113.142 205.006 113.028 204.664 112.848 204.376C112.668 204.076 112.428 203.848 112.128 203.692C111.828 203.524 111.498 203.44 111.138 203.44C110.766 203.44 110.43 203.524 110.13 203.692C109.842 203.848 109.608 204.076 109.428 204.376C109.248 204.664 109.134 205.006 109.086 205.402ZM123.135 211.18C122.427 211.18 121.809 211.03 121.281 210.73C120.753 210.418 120.339 209.998 120.039 209.47V214.834H117.159V201.55H119.661V203.08C120.009 202.54 120.447 202.12 120.975 201.82C121.503 201.52 122.121 201.37 122.829 201.37C123.465 201.37 124.047 201.496 124.575 201.748C125.115 202 125.583 202.348 125.979 202.792C126.375 203.236 126.681 203.752 126.897 204.34C127.113 204.928 127.221 205.564 127.221 206.248C127.221 207.184 127.047 208.024 126.699 208.768C126.351 209.512 125.865 210.1 125.241 210.532C124.629 210.964 123.927 211.18 123.135 211.18ZM122.163 208.75C122.475 208.75 122.757 208.684 123.009 208.552C123.273 208.408 123.501 208.222 123.693 207.994C123.885 207.766 124.029 207.502 124.125 207.202C124.233 206.89 124.287 206.566 124.287 206.23C124.287 205.882 124.227 205.564 124.107 205.276C123.999 204.988 123.843 204.736 123.639 204.52C123.435 204.292 123.195 204.118 122.919 203.998C122.643 203.878 122.343 203.818 122.019 203.818C121.827 203.818 121.629 203.848 121.425 203.908C121.233 203.968 121.047 204.058 120.867 204.178C120.699 204.286 120.543 204.418 120.399 204.574C120.255 204.73 120.135 204.91 120.039 205.114V207.058C120.171 207.382 120.345 207.67 120.561 207.922C120.777 208.174 121.023 208.378 121.299 208.534C121.575 208.678 121.863 208.75 122.163 208.75ZM128.331 211V201.55H131.211V204.376H132.741C133.881 204.376 134.757 204.676 135.369 205.276C135.993 205.864 136.305 206.638 136.305 207.598C136.305 208.27 136.173 208.864 135.909 209.38C135.657 209.896 135.279 210.298 134.775 210.586C134.271 210.862 133.653 211 132.921 211H128.331ZM131.211 208.822H132.453C132.717 208.822 132.933 208.774 133.101 208.678C133.281 208.57 133.413 208.426 133.497 208.246C133.581 208.054 133.623 207.844 133.623 207.616C133.623 207.388 133.581 207.19 133.497 207.022C133.413 206.842 133.281 206.698 133.101 206.59C132.933 206.482 132.711 206.428 132.435 206.428H131.211V208.822ZM137.727 211V201.55H140.607V211H137.727Z" fill="black"/>
<path d="M26.0523 46.2579C20.5074 46.7452 15.8384 47.8507 14.5753 48.9303C13.8526 49.5465 13.8526 49.5465 14.3429 50.0865C14.9874 50.8062 18.0563 51.7315 21.5905 52.3228C25.5885 52.9908 34.1003 53.0162 35.3136 52.3741C36.5255 51.7061 36.9376 50.9605 36.9376 49.3927C36.9376 47.774 36.3185 46.9767 34.7198 46.5402C33.274 46.1543 28.9415 46 26.0523 46.2579Z" fill="#363636"/>
<path d="M39.7745 46.4883C39.6451 46.7715 39.5162 48.5962 39.5162 50.6001C39.5162 54.6611 39.6715 54.3784 37.3243 54.5332L36.2935 54.6103L36.0352 59.6986L34.8487 59.9818C32.2696 60.6498 30.8497 62.577 31.0572 65.2762C31.1851 67.2034 32.088 68.617 33.6358 69.3631C34.7447 69.8763 35.1055 69.9012 44.8819 69.9012C50.4268 69.9012 55.0191 69.9798 55.0704 70.0819C55.1212 70.2103 53.961 79.4891 52.4908 90.7206C51.046 101.951 49.8077 111.718 49.7823 112.387C49.731 114.004 50.6085 115.008 52.13 115.008C53.3673 115.008 54.1417 114.366 54.4513 113.106C54.5807 112.593 55.9469 102.773 57.4694 91.285C58.9914 79.8221 60.3322 70.4163 60.4098 70.4163C60.5128 70.4163 61.4928 71.8294 62.6022 73.552C65.5421 78.178 65.0011 77.8689 70.2375 77.8689H74.5959V83.4987L69.4631 83.5758C64.7429 83.6529 64.2531 83.7028 63.5818 84.191C62.009 85.3482 61.9568 85.606 61.9568 95.1676C61.9568 104.702 61.9832 104.96 63.4793 106.217L64.3304 106.913H95.6956L96.5462 106.217C98.0423 104.96 98.0667 104.702 98.0667 95.1676C98.0667 85.6061 98.0159 85.3483 96.4437 84.191C95.7728 83.7027 95.2826 83.6529 90.5619 83.5758L85.4301 83.4987V77.8689H89.7895C95.0239 77.8689 94.4829 78.178 97.4233 73.552C98.5337 71.8293 99.5131 70.4163 99.6167 70.4163C99.6929 70.4163 101.036 79.8221 102.556 91.285C104.079 102.773 105.446 112.593 105.575 113.106C105.884 114.366 106.657 115.008 107.896 115.008C109.418 115.008 110.295 114.004 110.243 112.387C110.217 111.718 108.979 101.951 107.534 90.7206C106.065 79.4892 104.903 70.2103 104.956 70.0819C105.006 69.9798 109.597 69.9012 115.145 69.9012C124.921 69.9012 125.281 69.8763 126.389 69.3631C127.937 68.617 128.839 67.2034 128.968 65.2762C129.175 62.577 127.757 60.6497 125.177 59.9818L123.99 59.6986L123.734 54.6103L122.702 54.5332C120.355 54.3784 120.508 54.6611 120.508 50.6001C120.508 48.5962 120.38 46.7715 120.252 46.4883C120.045 46.1284 119.709 46 118.884 46C118.265 46 117.646 46.1284 117.464 46.3086C117.258 46.5142 117.155 47.7739 117.155 50.2407C117.155 52.708 117.052 53.9678 116.845 54.1728C116.666 54.3525 115.944 54.4809 115.196 54.4809C113.57 54.4809 113.544 54.5331 113.544 57.5913V59.8784H46.4806V57.5913C46.4806 54.5332 46.4557 54.4809 44.8307 54.4809C44.0822 54.4809 43.3605 54.3525 43.1803 54.1728C42.9728 53.9677 42.8702 52.708 42.8702 50.2407C42.8702 47.7739 42.7672 46.5141 42.5606 46.3086C42.3799 46.1284 41.7603 46 41.1417 46C40.317 46 39.9815 46.1285 39.7745 46.4883ZM82.6173 86.6084C85.506 87.5068 88.0089 90.001 88.7833 92.7764C89.2218 94.3194 89.0929 96.9922 88.4991 98.5596C87.8028 100.435 85.8145 102.569 83.9337 103.495C82.6437 104.137 82.1798 104.214 80.0128 104.214C77.8463 104.214 77.3819 104.137 76.0924 103.495C74.2081 102.569 72.2233 100.435 71.5265 98.5596C70.9337 96.9922 70.8038 94.3194 71.2428 92.7764C71.9908 90.0528 74.4923 87.5069 77.3043 86.6084C79.3165 85.9659 80.6046 85.9659 82.6173 86.6084Z" fill="#363636"/>
<path d="M77.794 90.4375C75.7574 91.3633 74.2872 94.0869 74.7252 96.168C75.4991 99.8448 79.5484 101.721 82.7208 99.8701C84.7062 98.7119 85.712 96.3232 85.172 94.0869C84.6036 91.6963 82.4376 89.9492 80.0128 89.9492C79.3673 89.9493 78.3873 90.1807 77.794 90.4375Z" fill="#363636"/>
<path d="M50.0919 46.1543C46.1715 46.8223 45.5787 47.2852 45.5787 49.5981C45.5787 51.4228 46.0426 52.0141 47.8468 52.5537C49.3966 53.0161 55.0192 53.0679 58.3468 52.6821C65.2076 51.8598 69.6686 50.1377 68.0455 48.9301C66.7804 48.0302 63.1432 47.0536 58.9913 46.54C56.5157 46.232 50.9952 46 50.0919 46.1543Z" fill="#363636"/>
<path d="M103.484 46.2579C97.1652 46.8482 91.6202 48.339 91.6202 49.4439C91.6202 51.1661 99.461 52.9136 107.25 52.9395C113.054 52.9395 114.446 52.2974 114.446 49.5982C114.446 47.774 113.827 46.9766 112.073 46.5142C110.424 46.1026 106.398 46 103.484 46.2579Z" fill="#363636"/>
<path d="M126.776 46.2833C124.996 46.5143 123.758 47.0538 123.346 47.774C122.959 48.5445 123.036 50.6778 123.5 51.3458C124.428 52.6568 125.152 52.8111 130.568 52.8111C134.23 52.8111 136.37 52.6822 138.435 52.3228C141.969 51.7315 145.038 50.8062 145.683 50.0865C146.173 49.5465 146.173 49.5465 145.45 48.9303C144.109 47.7994 139.492 46.7452 133.534 46.2579C130.053 45.9747 129.046 45.9747 126.776 46.2833Z" fill="#363636"/>
</svg>
