<svg width="160" height="253" viewBox="0 0 160 253" fill="none" xmlns="http://www.w3.org/2000/svg">
<rect width="160" height="160" fill="#FFE17F"/>
<path d="M6.102 211V209.848C5.358 209.812 4.644 209.656 3.96 209.38C3.288 209.092 2.688 208.702 2.16 208.21C1.644 207.718 1.236 207.136 0.936 206.464C0.636 205.792 0.486 205.042 0.486 204.214C0.486 203.35 0.642 202.576 0.954 201.892C1.278 201.208 1.704 200.626 2.232 200.146C2.76 199.666 3.354 199.294 4.014 199.03C4.686 198.754 5.382 198.598 6.102 198.562V197.554H8.892V198.562C9.612 198.598 10.308 198.754 10.98 199.03C11.652 199.306 12.252 199.684 12.78 200.164C13.308 200.644 13.728 201.226 14.04 201.91C14.352 202.594 14.508 203.362 14.508 204.214C14.508 205.042 14.352 205.798 14.04 206.482C13.74 207.154 13.326 207.736 12.798 208.228C12.27 208.708 11.67 209.092 10.998 209.38C10.326 209.656 9.624 209.812 8.892 209.848V211H6.102ZM6.174 207.49V200.92C5.682 200.956 5.226 201.112 4.806 201.388C4.398 201.652 4.068 202.018 3.816 202.486C3.564 202.954 3.438 203.53 3.438 204.214C3.438 204.718 3.51 205.168 3.654 205.564C3.81 205.96 4.014 206.296 4.266 206.572C4.53 206.836 4.824 207.052 5.148 207.22C5.484 207.376 5.826 207.466 6.174 207.49ZM8.82 207.49C9.3 207.442 9.744 207.286 10.152 207.022C10.572 206.758 10.908 206.392 11.16 205.924C11.424 205.456 11.556 204.886 11.556 204.214C11.556 203.71 11.484 203.266 11.34 202.882C11.196 202.486 10.998 202.15 10.746 201.874C10.494 201.586 10.2 201.364 9.864 201.208C9.54 201.04 9.192 200.944 8.82 200.92V207.49ZM15.5543 211V201.55H18.4343V207.166L22.0883 201.55H24.7163V211H21.8363V205.546L18.2003 211H15.5543ZM28.4624 211V204.07H25.6004V201.55H34.2044V204.07H31.3424V211H28.4624ZM35.0842 211V201.55H37.9642V204.97H41.1862V201.55H44.0662V211H41.1862V207.346H37.9642V211H35.0842ZM50.2282 211.18C49.4242 211.18 48.7102 211.054 48.0862 210.802C47.4622 210.538 46.9282 210.184 46.4842 209.74C46.0522 209.296 45.7222 208.786 45.4942 208.21C45.2662 207.622 45.1522 207.01 45.1522 206.374C45.1522 205.462 45.3502 204.634 45.7462 203.89C46.1542 203.134 46.7362 202.528 47.4922 202.072C48.2482 201.604 49.1602 201.37 50.2282 201.37C51.2962 201.37 52.2022 201.598 52.9462 202.054C53.7022 202.51 54.2782 203.11 54.6742 203.854C55.0702 204.586 55.2682 205.384 55.2682 206.248C55.2682 206.416 55.2562 206.584 55.2322 206.752C55.2202 206.908 55.2082 207.046 55.1962 207.166H48.2122C48.2482 207.586 48.3622 207.94 48.5542 208.228C48.7582 208.516 49.0162 208.738 49.3282 208.894C49.6402 209.038 49.9702 209.11 50.3182 209.11C50.7502 209.11 51.1522 209.008 51.5242 208.804C51.9082 208.6 52.1722 208.324 52.3162 207.976L54.7642 208.66C54.5242 209.152 54.1822 209.59 53.7382 209.974C53.3062 210.346 52.7902 210.64 52.1902 210.856C51.6022 211.072 50.9482 211.18 50.2282 211.18ZM48.1402 205.402H52.2442C52.1962 205.006 52.0822 204.664 51.9022 204.376C51.7222 204.076 51.4822 203.848 51.1822 203.692C50.8822 203.524 50.5522 203.44 50.1922 203.44C49.8202 203.44 49.4842 203.524 49.1842 203.692C48.8962 203.848 48.6622 204.076 48.4822 204.376C48.3022 204.664 48.1882 205.006 48.1402 205.402ZM60.7314 211.18C59.9274 211.18 59.2134 211.048 58.5894 210.784C57.9654 210.52 57.4314 210.16 56.9874 209.704C56.5554 209.248 56.2254 208.726 55.9974 208.138C55.7694 207.55 55.6554 206.926 55.6554 206.266C55.6554 205.402 55.8534 204.598 56.2494 203.854C56.6574 203.11 57.2394 202.51 57.9954 202.054C58.7514 201.598 59.6634 201.37 60.7314 201.37C61.8114 201.37 62.7234 201.604 63.4674 202.072C64.2234 202.528 64.7874 203.128 65.1594 203.872L62.3514 204.718C62.1714 204.43 61.9374 204.208 61.6494 204.052C61.3734 203.896 61.0614 203.818 60.7134 203.818C60.3174 203.818 59.9574 203.92 59.6334 204.124C59.3214 204.328 59.0694 204.61 58.8774 204.97C58.6974 205.33 58.6074 205.762 58.6074 206.266C58.6074 206.758 58.7034 207.19 58.8954 207.562C59.0874 207.934 59.3394 208.228 59.6514 208.444C59.9634 208.648 60.3174 208.75 60.7134 208.75C60.9534 208.75 61.1754 208.714 61.3794 208.642C61.5954 208.558 61.7874 208.444 61.9554 208.3C62.1354 208.156 62.2734 207.994 62.3694 207.814L65.1774 208.678C64.9494 209.158 64.6194 209.59 64.1874 209.974C63.7674 210.346 63.2694 210.64 62.6934 210.856C62.1174 211.072 61.4634 211.18 60.7314 211.18ZM66.1011 207.346V204.754H71.6451V207.346H66.1011ZM78.0893 211.18C76.4453 211.18 75.1913 210.7 74.3273 209.74C73.4753 208.768 73.0493 207.322 73.0493 205.402C73.0493 204.274 73.1513 203.32 73.3553 202.54C73.5593 201.748 73.8653 201.094 74.2733 200.578C74.6813 200.05 75.1973 199.63 75.8213 199.318C76.4453 198.994 77.1773 198.748 78.0173 198.58L82.0853 197.662L82.1213 199.93L78.0353 200.92C77.4953 201.064 77.0153 201.274 76.5953 201.55C76.1753 201.814 75.8333 202.156 75.5693 202.576C75.3173 202.996 75.1613 203.518 75.1013 204.142C75.4853 203.578 75.9893 203.128 76.6133 202.792C77.2373 202.456 78.0053 202.288 78.9173 202.288C79.7333 202.288 80.4593 202.468 81.0953 202.828C81.7313 203.188 82.2293 203.686 82.5893 204.322C82.9493 204.946 83.1293 205.672 83.1293 206.5C83.1293 207.388 82.9373 208.186 82.5533 208.894C82.1693 209.602 81.5993 210.16 80.8433 210.568C80.0993 210.976 79.1813 211.18 78.0893 211.18ZM78.0893 208.75C78.7253 208.75 79.2293 208.558 79.6013 208.174C79.9853 207.79 80.1773 207.28 80.1773 206.644C80.1773 206.044 79.9853 205.552 79.6013 205.168C79.2293 204.772 78.7253 204.574 78.0893 204.574C77.6933 204.574 77.3393 204.658 77.0273 204.826C76.7153 204.994 76.4633 205.234 76.2713 205.546C76.0913 205.858 76.0013 206.224 76.0013 206.644C76.0013 207.064 76.0853 207.436 76.2533 207.76C76.4333 208.072 76.6793 208.318 76.9913 208.498C77.3033 208.666 77.6693 208.75 78.0893 208.75ZM90.1661 211.18C89.4581 211.18 88.8401 211.03 88.3121 210.73C87.7841 210.418 87.3701 209.998 87.0701 209.47V214.834H84.1901V201.55H86.6921V203.08C87.0401 202.54 87.4781 202.12 88.0061 201.82C88.5341 201.52 89.1521 201.37 89.8601 201.37C90.4961 201.37 91.0781 201.496 91.6061 201.748C92.1461 202 92.6141 202.348 93.0101 202.792C93.4061 203.236 93.7121 203.752 93.9281 204.34C94.1441 204.928 94.2521 205.564 94.2521 206.248C94.2521 207.184 94.0781 208.024 93.7301 208.768C93.3821 209.512 92.8961 210.1 92.2721 210.532C91.6601 210.964 90.9581 211.18 90.1661 211.18ZM89.1941 208.75C89.5061 208.75 89.7881 208.684 90.0401 208.552C90.3041 208.408 90.5321 208.222 90.7241 207.994C90.9161 207.766 91.0601 207.502 91.1561 207.202C91.2641 206.89 91.3181 206.566 91.3181 206.23C91.3181 205.882 91.2581 205.564 91.1381 205.276C91.0301 204.988 90.8741 204.736 90.6701 204.52C90.4661 204.292 90.2261 204.118 89.9501 203.998C89.6741 203.878 89.3741 203.818 89.0501 203.818C88.8581 203.818 88.6601 203.848 88.4561 203.908C88.2641 203.968 88.0781 204.058 87.8981 204.178C87.7301 204.286 87.5741 204.418 87.4301 204.574C87.2861 204.73 87.1661 204.91 87.0701 205.114V207.058C87.2021 207.382 87.3761 207.67 87.5921 207.922C87.8081 208.174 88.0541 208.378 88.3301 208.534C88.6061 208.678 88.8941 208.75 89.1941 208.75ZM94.7498 208.174C94.7498 207.55 94.9238 207.004 95.2718 206.536C95.6198 206.068 96.0998 205.702 96.7118 205.438C97.3238 205.162 98.0258 205.024 98.8178 205.024C99.2018 205.024 99.5798 205.06 99.9518 205.132C100.324 205.192 100.648 205.282 100.924 205.402V204.988C100.924 204.472 100.768 204.076 100.456 203.8C100.144 203.524 99.6698 203.386 99.0338 203.386C98.5058 203.386 98.0078 203.476 97.5398 203.656C97.0838 203.836 96.5978 204.094 96.0818 204.43L95.2178 202.594C95.8418 202.186 96.4898 201.88 97.1618 201.676C97.8458 201.472 98.5658 201.37 99.3218 201.37C100.738 201.37 101.836 201.712 102.616 202.396C103.408 203.068 103.804 204.046 103.804 205.33V207.796C103.804 208.084 103.846 208.288 103.93 208.408C104.026 208.516 104.188 208.582 104.416 208.606V211C104.176 211.048 103.948 211.084 103.732 211.108C103.528 211.132 103.348 211.144 103.192 211.144C102.652 211.144 102.238 211.036 101.95 210.82C101.674 210.604 101.5 210.31 101.428 209.938L101.374 209.524C100.954 210.064 100.45 210.478 99.8618 210.766C99.2858 211.042 98.6798 211.18 98.0438 211.18C97.4198 211.18 96.8558 211.048 96.3518 210.784C95.8598 210.52 95.4698 210.16 95.1818 209.704C94.8938 209.248 94.7498 208.738 94.7498 208.174ZM100.474 208.534C100.606 208.426 100.714 208.306 100.798 208.174C100.882 208.042 100.924 207.916 100.924 207.796V206.95C100.684 206.854 100.414 206.782 100.114 206.734C99.8258 206.674 99.5558 206.644 99.3038 206.644C98.7758 206.644 98.3378 206.764 97.9898 207.004C97.6418 207.232 97.4678 207.538 97.4678 207.922C97.4678 208.138 97.5278 208.336 97.6478 208.516C97.7678 208.696 97.9298 208.84 98.1338 208.948C98.3498 209.056 98.6018 209.11 98.8898 209.11C99.1778 209.11 99.4658 209.056 99.7538 208.948C100.042 208.84 100.282 208.702 100.474 208.534ZM110.049 211.18C109.245 211.18 108.531 211.048 107.907 210.784C107.283 210.52 106.749 210.16 106.305 209.704C105.873 209.248 105.543 208.726 105.315 208.138C105.087 207.55 104.973 206.926 104.973 206.266C104.973 205.402 105.171 204.598 105.567 203.854C105.975 203.11 106.557 202.51 107.313 202.054C108.069 201.598 108.981 201.37 110.049 201.37C111.129 201.37 112.041 201.604 112.785 202.072C113.541 202.528 114.105 203.128 114.477 203.872L111.669 204.718C111.489 204.43 111.255 204.208 110.967 204.052C110.691 203.896 110.379 203.818 110.031 203.818C109.635 203.818 109.275 203.92 108.951 204.124C108.639 204.328 108.387 204.61 108.195 204.97C108.015 205.33 107.925 205.762 107.925 206.266C107.925 206.758 108.021 207.19 108.213 207.562C108.405 207.934 108.657 208.228 108.969 208.444C109.281 208.648 109.635 208.75 110.031 208.75C110.271 208.75 110.493 208.714 110.697 208.642C110.913 208.558 111.105 208.444 111.273 208.3C111.453 208.156 111.591 207.994 111.687 207.814L114.495 208.678C114.267 209.158 113.937 209.59 113.505 209.974C113.085 210.346 112.587 210.64 112.011 210.856C111.435 211.072 110.781 211.18 110.049 211.18ZM114.824 211.144V208.588C115.112 208.588 115.364 208.528 115.58 208.408C115.796 208.288 115.982 208.09 116.138 207.814C116.306 207.538 116.438 207.142 116.534 206.626C116.63 206.11 116.696 205.45 116.732 204.646L116.858 201.55H124.328V211H121.448V204.07H119.414L119.378 204.952C119.318 206.152 119.186 207.154 118.982 207.958C118.79 208.75 118.508 209.38 118.136 209.848C117.764 210.304 117.308 210.634 116.768 210.838C116.228 211.042 115.58 211.144 114.824 211.144ZM130.493 211.18C129.689 211.18 128.975 211.054 128.351 210.802C127.727 210.538 127.193 210.184 126.749 209.74C126.317 209.296 125.987 208.786 125.759 208.21C125.531 207.622 125.417 207.01 125.417 206.374C125.417 205.462 125.615 204.634 126.011 203.89C126.419 203.134 127.001 202.528 127.757 202.072C128.513 201.604 129.425 201.37 130.493 201.37C131.561 201.37 132.467 201.598 133.211 202.054C133.967 202.51 134.543 203.11 134.939 203.854C135.335 204.586 135.533 205.384 135.533 206.248C135.533 206.416 135.521 206.584 135.497 206.752C135.485 206.908 135.473 207.046 135.461 207.166H128.477C128.513 207.586 128.627 207.94 128.819 208.228C129.023 208.516 129.281 208.738 129.593 208.894C129.905 209.038 130.235 209.11 130.583 209.11C131.015 209.11 131.417 209.008 131.789 208.804C132.173 208.6 132.437 208.324 132.581 207.976L135.029 208.66C134.789 209.152 134.447 209.59 134.003 209.974C133.571 210.346 133.055 210.64 132.455 210.856C131.867 211.072 131.213 211.18 130.493 211.18ZM128.405 205.402H132.509C132.461 205.006 132.347 204.664 132.167 204.376C131.987 204.076 131.747 203.848 131.447 203.692C131.147 203.524 130.817 203.44 130.457 203.44C130.085 203.44 129.749 203.524 129.449 203.692C129.161 203.848 128.927 204.076 128.747 204.376C128.567 204.664 128.453 205.006 128.405 205.402ZM138.602 211V204.07H135.74V201.55H144.344V204.07H141.482V211H138.602ZM145.224 211V201.55H148.104V204.376H149.634C150.774 204.376 151.65 204.676 152.262 205.276C152.886 205.864 153.198 206.638 153.198 207.598C153.198 208.27 153.066 208.864 152.802 209.38C152.55 209.896 152.172 210.298 151.668 210.586C151.164 210.862 150.546 211 149.814 211H145.224ZM148.104 208.822H149.346C149.61 208.822 149.826 208.774 149.994 208.678C150.174 208.57 150.306 208.426 150.39 208.246C150.474 208.054 150.516 207.844 150.516 207.616C150.516 207.388 150.474 207.19 150.39 207.022C150.306 206.842 150.174 206.698 149.994 206.59C149.826 206.482 149.604 206.428 149.328 206.428H148.104V208.822ZM154.62 211V201.55H157.5V211H154.62Z" fill="black"/>
<path d="M124.967 52.0741C125.719 53.5151 126.176 55.1541 126.176 56.8921V77.9941C126.176 82.6101 123.084 86.5211 118.93 87.8941C117.605 91.8811 115.152 95.7481 110.879 98.3261C102.203 103.557 79.755 103.163 79.681 103.163C79.603 103.163 57.168 103.558 48.492 98.3261C44.276 95.7811 41.784 91.9791 40.45 88.0471C36.032 86.8381 32.694 82.7961 32.694 77.9941V56.8931C32.694 55.2051 33.121 53.6111 33.833 52.2001C30.17 53.1091 26 54.9181 26 58.4341C26 64.6771 26 84.1211 26 88.4171C26 98.6681 37.839 112.85 79.657 112.85C121.477 112.85 133.314 98.6681 133.314 88.4171C133.314 84.1211 133.314 64.6771 133.314 58.4341C133.313 54.7501 128.738 52.9401 124.967 52.0741Z" fill="#363636"/>
<path d="M46.561 86.4591H112.084C117.648 86.4591 122.158 81.9461 122.158 76.3821V57.9351C122.158 52.3721 117.648 47.8601 112.084 47.8601H46.561C40.997 47.8601 36.486 52.3711 36.486 57.9351V76.3821C36.486 81.9461 40.997 86.4591 46.561 86.4591ZM109.695 57.4681C110.562 57.4681 111.264 58.1711 111.264 59.0381C111.264 59.9041 110.562 60.6071 109.695 60.6071C108.828 60.6071 108.127 59.9041 108.127 59.0381C108.127 58.1701 108.828 57.4681 109.695 57.4681ZM109.695 61.5071C110.562 61.5071 111.264 62.2101 111.264 63.0751C111.264 63.9421 110.562 64.6441 109.695 64.6441C108.828 64.6441 108.127 63.9421 108.127 63.0751C108.127 62.2101 108.828 61.5071 109.695 61.5071ZM109.695 65.5461C110.562 65.5461 111.264 66.2481 111.264 67.1151C111.264 67.9811 110.562 68.6841 109.695 68.6841C108.828 68.6841 108.127 67.9811 108.127 67.1151C108.127 66.2481 108.828 65.5461 109.695 65.5461ZM109.695 69.3731C110.562 69.3731 111.264 70.0771 111.264 70.9421C111.264 71.8091 110.562 72.5101 109.695 72.5101C108.828 72.5101 108.127 71.8091 108.127 70.9421C108.127 70.0761 108.828 69.3731 109.695 69.3731ZM109.695 73.4121C110.562 73.4121 111.264 74.1141 111.264 74.9811C111.264 75.8461 110.562 76.5491 109.695 76.5491C108.828 76.5491 108.127 75.8451 108.127 74.9811C108.127 74.1141 108.828 73.4121 109.695 73.4121ZM105.656 57.4681C106.523 57.4681 107.224 58.1711 107.224 59.0381C107.224 59.9041 106.523 60.6071 105.656 60.6071C104.791 60.6071 104.088 59.9041 104.088 59.0381C104.088 58.1701 104.791 57.4681 105.656 57.4681ZM105.656 73.4121C106.523 73.4121 107.224 74.1141 107.224 74.9811C107.224 75.8461 106.523 76.5491 105.656 76.5491C104.791 76.5491 104.088 75.8451 104.088 74.9811C104.088 74.1141 104.791 73.4121 105.656 73.4121ZM101.619 57.4681C102.484 57.4681 103.187 58.1711 103.187 59.0381C103.187 59.9041 102.484 60.6071 101.619 60.6071C100.752 60.6071 100.05 59.9041 100.05 59.0381C100.05 58.1701 100.752 57.4681 101.619 57.4681ZM101.619 61.5071C102.484 61.5071 103.187 62.2101 103.187 63.0751C103.187 63.9421 102.484 64.6441 101.619 64.6441C100.752 64.6441 100.05 63.9421 100.05 63.0751C100.05 62.2101 100.752 61.5071 101.619 61.5071ZM101.619 65.5461C102.484 65.5461 103.187 66.2481 103.187 67.1151C103.187 67.9811 102.484 68.6841 101.619 68.6841C100.752 68.6841 100.05 67.9811 100.05 67.1151C100.05 66.2481 100.752 65.5461 101.619 65.5461ZM101.619 69.3731C102.484 69.3731 103.187 70.0771 103.187 70.9421C103.187 71.8091 102.484 72.5101 101.619 72.5101C100.752 72.5101 100.05 71.8091 100.05 70.9421C100.05 70.0761 100.752 69.3731 101.619 69.3731ZM101.619 73.4121C102.484 73.4121 103.187 74.1141 103.187 74.9811C103.187 75.8461 102.484 76.5491 101.619 76.5491C100.752 76.5491 100.05 75.8451 100.05 74.9811C100.05 74.1141 100.752 73.4121 101.619 73.4121ZM93.965 57.4681C94.832 57.4681 95.533 58.1711 95.533 59.0381C95.533 59.9041 94.832 60.6071 93.965 60.6071C93.098 60.6071 92.397 59.9041 92.397 59.0381C92.396 58.1701 93.1 57.4681 93.965 57.4681ZM93.965 65.5461C94.832 65.5461 95.533 66.2481 95.533 67.1151C95.533 67.9811 94.832 68.6841 93.965 68.6841C93.098 68.6841 92.397 67.9811 92.397 67.1151C92.396 66.2481 93.1 65.5461 93.965 65.5461ZM93.965 69.4271C94.832 69.4271 95.533 70.1281 95.533 70.9951C95.533 71.8601 94.832 72.5641 93.965 72.5641C93.098 72.5641 92.397 71.8601 92.397 70.9951C92.396 70.1281 93.1 69.4271 93.965 69.4271ZM93.965 73.4121C94.832 73.4121 95.533 74.1141 95.533 74.9811C95.533 75.8461 94.832 76.5491 93.965 76.5491C93.098 76.5491 92.397 75.8451 92.397 74.9811C92.396 74.1141 93.1 73.4121 93.965 73.4121ZM89.926 57.4681C90.793 57.4681 91.496 58.1711 91.496 59.0381C91.496 59.9041 90.793 60.6071 89.926 60.6071C89.061 60.6071 88.357 59.9041 88.357 59.0381C88.356 58.1701 89.061 57.4681 89.926 57.4681ZM89.926 65.5461C90.793 65.5461 91.496 66.2481 91.496 67.1151C91.496 67.9811 90.793 68.6841 89.926 68.6841C89.061 68.6841 88.357 67.9811 88.357 67.1151C88.356 66.2481 89.061 65.5461 89.926 65.5461ZM89.926 73.4121C90.793 73.4121 91.496 74.1141 91.496 74.9811C91.496 75.8461 90.793 76.5491 89.926 76.5491C89.061 76.5491 88.357 75.8451 88.357 74.9811C88.356 74.1141 89.061 73.4121 89.926 73.4121ZM85.888 57.4681C86.753 57.4681 87.457 58.1711 87.457 59.0381C87.457 59.9041 86.753 60.6071 85.888 60.6071C85.021 60.6071 84.32 59.9041 84.32 59.0381C84.319 58.1701 85.021 57.4681 85.888 57.4681ZM85.888 61.5071C86.753 61.5071 87.457 62.2101 87.457 63.0751C87.457 63.9421 86.753 64.6441 85.888 64.6441C85.021 64.6441 84.32 63.9421 84.32 63.0751C84.319 62.2101 85.021 61.5071 85.888 61.5071ZM85.888 65.5461C86.753 65.5461 87.457 66.2481 87.457 67.1151C87.457 67.9811 86.753 68.6841 85.888 68.6841C85.021 68.6841 84.32 67.9811 84.32 67.1151C84.319 66.2481 85.021 65.5461 85.888 65.5461ZM85.888 73.4121C86.753 73.4121 87.457 74.1141 87.457 74.9811C87.457 75.8461 86.753 76.5491 85.888 76.5491C85.021 76.5491 84.32 75.8451 84.32 74.9811C84.319 74.1141 85.021 73.4121 85.888 73.4121ZM77.598 57.4681C78.465 57.4681 79.167 58.1711 79.167 59.0381C79.167 59.9041 78.465 60.6071 77.598 60.6071C76.731 60.6071 76.03 59.9041 76.03 59.0381C76.029 58.1701 76.731 57.4681 77.598 57.4681ZM77.598 61.5071C78.465 61.5071 79.167 62.2101 79.167 63.0751C79.167 63.9421 78.465 64.6441 77.598 64.6441C76.731 64.6441 76.03 63.9421 76.03 63.0751C76.029 62.2101 76.731 61.5071 77.598 61.5071ZM77.598 65.5461C78.465 65.5461 79.167 66.2481 79.167 67.1151C79.167 67.9811 78.465 68.6841 77.598 68.6841C76.731 68.6841 76.03 67.9811 76.03 67.1151C76.029 66.2481 76.731 65.5461 77.598 65.5461ZM77.598 69.4271C78.465 69.4271 79.167 70.1281 79.167 70.9951C79.167 71.8601 78.465 72.5641 77.598 72.5641C76.731 72.5641 76.03 71.8601 76.03 70.9951C76.029 70.1281 76.731 69.4271 77.598 69.4271ZM77.598 73.4121C78.465 73.4121 79.167 74.1141 79.167 74.9811C79.167 75.8461 78.465 76.5491 77.598 76.5491C76.731 76.5491 76.03 75.8451 76.03 74.9811C76.029 74.1141 76.731 73.4121 77.598 73.4121ZM73.559 61.5071C74.426 61.5071 75.127 62.2101 75.127 63.0751C75.127 63.9421 74.426 64.6441 73.559 64.6441C72.692 64.6441 71.99 63.9421 71.99 63.0751C71.99 62.2101 72.691 61.5071 73.559 61.5071ZM65.057 61.2951C65.922 61.2951 66.626 61.9981 66.626 62.8631C66.626 63.7301 65.922 64.4321 65.057 64.4321C64.19 64.4321 63.486 63.7291 63.486 62.8631C63.486 61.9981 64.189 61.2951 65.057 61.2951ZM65.057 65.3331C65.922 65.3331 66.626 66.0361 66.626 66.9031C66.626 67.7691 65.922 68.4731 65.057 68.4731C64.19 68.4731 63.486 67.7691 63.486 66.9031C63.486 66.0361 64.189 65.3331 65.057 65.3331ZM61.018 57.2551C61.883 57.2551 62.586 57.9581 62.586 58.8251C62.586 59.6911 61.882 60.3931 61.018 60.3931C60.151 60.3931 59.449 59.6901 59.449 58.8251C59.449 57.9581 60.15 57.2551 61.018 57.2551ZM61.018 61.2951C61.883 61.2951 62.586 61.9981 62.586 62.8631C62.586 63.7301 61.882 64.4321 61.018 64.4321C60.151 64.4321 59.449 63.7291 59.449 62.8631C59.449 61.9981 60.15 61.2951 61.018 61.2951ZM61.018 65.3331C61.883 65.3331 62.586 66.0361 62.586 66.9031C62.586 67.7691 61.882 68.4731 61.018 68.4731C60.151 68.4731 59.449 67.7691 59.449 66.9031C59.449 66.0361 60.15 65.3331 61.018 65.3331ZM61.018 69.3731C61.883 69.3731 62.586 70.0771 62.586 70.9421C62.586 71.8091 61.882 72.5101 61.018 72.5101C60.151 72.5101 59.449 71.8091 59.449 70.9421C59.449 70.0761 60.15 69.3731 61.018 69.3731ZM56.764 61.2951C57.631 61.2951 58.333 61.9981 58.333 62.8631C58.333 63.7301 57.631 64.4321 56.764 64.4321C55.897 64.4321 55.196 63.7291 55.196 62.8631C55.196 61.9981 55.897 61.2951 56.764 61.2951ZM56.764 65.3331C57.631 65.3331 58.333 66.0361 58.333 66.9031C58.333 67.7691 57.631 68.4731 56.764 68.4731C55.897 68.4731 55.196 67.7691 55.196 66.9031C55.196 66.0361 55.897 65.3331 56.764 65.3331ZM56.764 69.3731C57.631 69.3731 58.333 70.0771 58.333 70.9421C58.333 71.8091 57.631 72.5101 56.764 72.5101C55.897 72.5101 55.196 71.8091 55.196 70.9421C55.196 70.0761 55.897 69.3731 56.764 69.3731ZM56.764 73.4121C57.631 73.4121 58.333 74.1141 58.333 74.9811C58.333 75.8461 57.631 76.5491 56.764 76.5491C55.897 76.5491 55.196 75.8451 55.196 74.9811C55.196 74.1141 55.897 73.4121 56.764 73.4121ZM52.3 57.2551C53.167 57.2551 53.871 57.9581 53.871 58.8251C53.871 59.6911 53.167 60.3931 52.3 60.3931C51.435 60.3931 50.731 59.6901 50.731 58.8251C50.731 57.9581 51.435 57.2551 52.3 57.2551ZM52.3 61.2951C53.167 61.2951 53.871 61.9981 53.871 62.8631C53.871 63.7301 53.167 64.4321 52.3 64.4321C51.435 64.4321 50.731 63.7291 50.731 62.8631C50.731 61.9981 51.435 61.2951 52.3 61.2951ZM52.3 65.3331C53.167 65.3331 53.871 66.0361 53.871 66.9031C53.871 67.7691 53.167 68.4731 52.3 68.4731C51.435 68.4731 50.731 67.7691 50.731 66.9031C50.731 66.0361 51.435 65.3331 52.3 65.3331ZM52.3 69.3731C53.167 69.3731 53.871 70.0771 53.871 70.9421C53.871 71.8091 53.167 72.5101 52.3 72.5101C51.435 72.5101 50.731 71.8091 50.731 70.9421C50.731 70.0761 51.435 69.3731 52.3 69.3731ZM48.263 61.2951C49.128 61.2951 49.832 61.9981 49.832 62.8631C49.832 63.7301 49.128 64.4321 48.263 64.4321C47.396 64.4321 46.694 63.7291 46.694 62.8631C46.694 61.9981 47.396 61.2951 48.263 61.2951ZM48.263 65.3331C49.128 65.3331 49.832 66.0361 49.832 66.9031C49.832 67.7691 49.128 68.4731 48.263 68.4731C47.396 68.4731 46.694 67.7691 46.694 66.9031C46.694 66.0361 47.396 65.3331 48.263 65.3331Z" fill="#363636"/>
</svg>
