<svg width="160" height="253" viewBox="0 0 160 253" fill="none" xmlns="http://www.w3.org/2000/svg">
<rect width="160" height="160" fill="#FFE17F"/>
<path d="M11.304 211V203.386L8.55 208.93H6.93L4.176 203.386V211H1.224V198.22H4.428L7.74 204.898L11.07 198.22H14.256V211H11.304ZM20.4581 211.18C19.6541 211.18 18.9341 211.048 18.2981 210.784C17.6741 210.52 17.1461 210.16 16.7141 209.704C16.2821 209.248 15.9521 208.726 15.7241 208.138C15.5081 207.55 15.4001 206.932 15.4001 206.284C15.4001 205.624 15.5081 205 15.7241 204.412C15.9521 203.824 16.2821 203.302 16.7141 202.846C17.1461 202.39 17.6741 202.03 18.2981 201.766C18.9341 201.502 19.6541 201.37 20.4581 201.37C21.2621 201.37 21.9761 201.502 22.6001 201.766C23.2241 202.03 23.7521 202.39 24.1841 202.846C24.6161 203.302 24.9461 203.824 25.1741 204.412C25.4021 205 25.5161 205.624 25.5161 206.284C25.5161 206.932 25.4021 207.55 25.1741 208.138C24.9461 208.726 24.6161 209.248 24.1841 209.704C23.7521 210.16 23.2241 210.52 22.6001 210.784C21.9761 211.048 21.2621 211.18 20.4581 211.18ZM18.3521 206.284C18.3521 206.776 18.4421 207.208 18.6221 207.58C18.8141 207.952 19.0661 208.24 19.3781 208.444C19.6901 208.648 20.0501 208.75 20.4581 208.75C20.8541 208.75 21.2081 208.648 21.5201 208.444C21.8441 208.228 22.0961 207.934 22.2761 207.562C22.4561 207.19 22.5461 206.764 22.5461 206.284C22.5461 205.792 22.4561 205.36 22.2761 204.988C22.0961 204.616 21.8441 204.328 21.5201 204.124C21.2081 203.92 20.8541 203.818 20.4581 203.818C20.0501 203.818 19.6901 203.92 19.3781 204.124C19.0661 204.328 18.8141 204.616 18.6221 204.988C18.4421 205.36 18.3521 205.792 18.3521 206.284ZM26.6025 211V201.55H29.4825V204.97H32.7045V201.55H35.5845V211H32.7045V207.346H29.4825V211H26.6025ZM41.7284 211.18C40.9244 211.18 40.2044 211.048 39.5684 210.784C38.9444 210.52 38.4164 210.16 37.9844 209.704C37.5524 209.248 37.2224 208.726 36.9944 208.138C36.7784 207.55 36.6704 206.932 36.6704 206.284C36.6704 205.624 36.7784 205 36.9944 204.412C37.2224 203.824 37.5524 203.302 37.9844 202.846C38.4164 202.39 38.9444 202.03 39.5684 201.766C40.2044 201.502 40.9244 201.37 41.7284 201.37C42.5324 201.37 43.2464 201.502 43.8704 201.766C44.4944 202.03 45.0224 202.39 45.4544 202.846C45.8864 203.302 46.2164 203.824 46.4444 204.412C46.6724 205 46.7864 205.624 46.7864 206.284C46.7864 206.932 46.6724 207.55 46.4444 208.138C46.2164 208.726 45.8864 209.248 45.4544 209.704C45.0224 210.16 44.4944 210.52 43.8704 210.784C43.2464 211.048 42.5324 211.18 41.7284 211.18ZM39.6224 206.284C39.6224 206.776 39.7124 207.208 39.8924 207.58C40.0844 207.952 40.3364 208.24 40.6484 208.444C40.9604 208.648 41.3204 208.75 41.7284 208.75C42.1244 208.75 42.4784 208.648 42.7904 208.444C43.1144 208.228 43.3664 207.934 43.5464 207.562C43.7264 207.19 43.8164 206.764 43.8164 206.284C43.8164 205.792 43.7264 205.36 43.5464 204.988C43.3664 204.616 43.1144 204.328 42.7904 204.124C42.4784 203.92 42.1244 203.818 41.7284 203.818C41.3204 203.818 40.9604 203.92 40.6484 204.124C40.3364 204.328 40.0844 204.616 39.8924 204.988C39.7124 205.36 39.6224 205.792 39.6224 206.284ZM47.8727 211V201.55H56.7107V211H53.8307V204.07H50.7527V211H47.8727ZM62.8404 211.18C62.0364 211.18 61.3164 211.048 60.6804 210.784C60.0564 210.52 59.5284 210.16 59.0964 209.704C58.6644 209.248 58.3344 208.726 58.1064 208.138C57.8904 207.55 57.7824 206.932 57.7824 206.284C57.7824 205.624 57.8904 205 58.1064 204.412C58.3344 203.824 58.6644 203.302 59.0964 202.846C59.5284 202.39 60.0564 202.03 60.6804 201.766C61.3164 201.502 62.0364 201.37 62.8404 201.37C63.6444 201.37 64.3584 201.502 64.9824 201.766C65.6064 202.03 66.1344 202.39 66.5664 202.846C66.9984 203.302 67.3284 203.824 67.5564 204.412C67.7844 205 67.8984 205.624 67.8984 206.284C67.8984 206.932 67.7844 207.55 67.5564 208.138C67.3284 208.726 66.9984 209.248 66.5664 209.704C66.1344 210.16 65.6064 210.52 64.9824 210.784C64.3584 211.048 63.6444 211.18 62.8404 211.18ZM60.7344 206.284C60.7344 206.776 60.8244 207.208 61.0044 207.58C61.1964 207.952 61.4484 208.24 61.7604 208.444C62.0724 208.648 62.4324 208.75 62.8404 208.75C63.2364 208.75 63.5904 208.648 63.9024 208.444C64.2264 208.228 64.4784 207.934 64.6584 207.562C64.8384 207.19 64.9284 206.764 64.9284 206.284C64.9284 205.792 64.8384 205.36 64.6584 204.988C64.4784 204.616 64.2264 204.328 63.9024 204.124C63.5904 203.92 63.2364 203.818 62.8404 203.818C62.4324 203.818 62.0724 203.92 61.7604 204.124C61.4484 204.328 61.1964 204.616 61.0044 204.988C60.8244 205.36 60.7344 205.792 60.7344 206.284ZM68.3547 213.322V208.498H68.6427C68.8587 208.498 69.0687 208.444 69.2727 208.336C69.4767 208.216 69.6567 208.018 69.8127 207.742C69.9687 207.466 70.0947 207.076 70.1907 206.572C70.2987 206.068 70.3647 205.426 70.3887 204.646L70.5147 201.55H77.9667V208.498H79.3167V213.322H76.7967V211H70.8747V213.322H68.3547ZM72.1347 208.498H75.0867V203.944H73.0347L72.9807 204.952C72.9447 205.612 72.8907 206.176 72.8187 206.644C72.7587 207.112 72.6687 207.496 72.5487 207.796C72.4407 208.084 72.3027 208.318 72.1347 208.498ZM80.4372 211V201.55H83.3172V204.376H84.8472C85.9872 204.376 86.8632 204.676 87.4752 205.276C88.0992 205.864 88.4112 206.638 88.4112 207.598C88.4112 208.27 88.2792 208.864 88.0152 209.38C87.7632 209.896 87.3852 210.298 86.8812 210.586C86.3772 210.862 85.7592 211 85.0272 211H80.4372ZM83.3172 208.822H84.5592C84.8232 208.822 85.0392 208.774 85.2072 208.678C85.3872 208.57 85.5192 208.426 85.6032 208.246C85.6872 208.054 85.7292 207.844 85.7292 207.616C85.7292 207.388 85.6872 207.19 85.6032 207.022C85.5192 206.842 85.3872 206.698 85.2072 206.59C85.0392 206.482 84.8172 206.428 84.5412 206.428H83.3172V208.822ZM89.8332 211V201.55H92.7132V211H89.8332ZM0.378 237.322V232.498H0.666C0.882 232.498 1.092 232.444 1.296 232.336C1.5 232.216 1.68 232.018 1.836 231.742C1.992 231.466 2.118 231.076 2.214 230.572C2.322 230.068 2.388 229.426 2.412 228.646L2.538 225.55H9.99V232.498H11.34V237.322H8.82V235H2.898V237.322H0.378ZM4.158 232.498H7.11V227.944H5.058L5.004 228.952C4.968 229.612 4.914 230.176 4.842 230.644C4.782 231.112 4.692 231.496 4.572 231.796C4.464 232.084 4.326 232.318 4.158 232.498ZM11.8305 235.144V232.588C12.1185 232.588 12.3705 232.528 12.5865 232.408C12.8025 232.288 12.9885 232.09 13.1445 231.814C13.3125 231.538 13.4445 231.142 13.5405 230.626C13.6365 230.11 13.7025 229.45 13.7385 228.646L13.8645 225.55H21.3345V235H18.4545V228.07H16.4205L16.3845 228.952C16.3245 230.152 16.1925 231.154 15.9885 231.958C15.7965 232.75 15.5145 233.38 15.1425 233.848C14.7705 234.304 14.3145 234.634 13.7745 234.838C13.2345 235.042 12.5865 235.144 11.8305 235.144ZM22.6029 235L24.8349 231.382C24.2949 231.202 23.8749 230.89 23.5749 230.446C23.2749 229.99 23.1249 229.402 23.1249 228.682C23.1249 228.034 23.2689 227.476 23.5569 227.008C23.8569 226.528 24.2649 226.162 24.7809 225.91C25.3089 225.646 25.9089 225.514 26.5809 225.514H31.4229V235H28.5429V231.886H27.5889L25.7529 235H22.6029ZM26.9769 229.852H28.5429V227.692H27.0129C26.6529 227.692 26.3709 227.794 26.1669 227.998C25.9749 228.19 25.8789 228.442 25.8789 228.754C25.8789 229.078 25.9689 229.342 26.1489 229.546C26.3409 229.75 26.6169 229.852 26.9769 229.852ZM41.4215 235.18C40.6175 235.18 39.9035 235.048 39.2795 234.784C38.6555 234.52 38.1215 234.16 37.6775 233.704C37.2455 233.248 36.9155 232.726 36.6875 232.138C36.4595 231.55 36.3455 230.926 36.3455 230.266C36.3455 229.402 36.5435 228.598 36.9395 227.854C37.3475 227.11 37.9295 226.51 38.6855 226.054C39.4415 225.598 40.3535 225.37 41.4215 225.37C42.5015 225.37 43.4135 225.604 44.1575 226.072C44.9135 226.528 45.4775 227.128 45.8495 227.872L43.0415 228.718C42.8615 228.43 42.6275 228.208 42.3395 228.052C42.0635 227.896 41.7515 227.818 41.4035 227.818C41.0075 227.818 40.6475 227.92 40.3235 228.124C40.0115 228.328 39.7595 228.61 39.5675 228.97C39.3875 229.33 39.2975 229.762 39.2975 230.266C39.2975 230.758 39.3935 231.19 39.5855 231.562C39.7775 231.934 40.0295 232.228 40.3415 232.444C40.6535 232.648 41.0075 232.75 41.4035 232.75C41.6435 232.75 41.8655 232.714 42.0695 232.642C42.2855 232.558 42.4775 232.444 42.6455 232.3C42.8255 232.156 42.9635 231.994 43.0595 231.814L45.8675 232.678C45.6395 233.158 45.3095 233.59 44.8775 233.974C44.4575 234.346 43.9595 234.64 43.3835 234.856C42.8075 235.072 42.1535 235.18 41.4215 235.18ZM51.2393 235.18C50.4353 235.18 49.7213 235.054 49.0973 234.802C48.4733 234.538 47.9393 234.184 47.4953 233.74C47.0633 233.296 46.7333 232.786 46.5053 232.21C46.2773 231.622 46.1633 231.01 46.1633 230.374C46.1633 229.462 46.3613 228.634 46.7573 227.89C47.1653 227.134 47.7473 226.528 48.5033 226.072C49.2593 225.604 50.1713 225.37 51.2393 225.37C52.3073 225.37 53.2133 225.598 53.9573 226.054C54.7133 226.51 55.2893 227.11 55.6853 227.854C56.0813 228.586 56.2793 229.384 56.2793 230.248C56.2793 230.416 56.2673 230.584 56.2433 230.752C56.2313 230.908 56.2193 231.046 56.2073 231.166H49.2233C49.2593 231.586 49.3733 231.94 49.5653 232.228C49.7693 232.516 50.0273 232.738 50.3393 232.894C50.6513 233.038 50.9813 233.11 51.3293 233.11C51.7613 233.11 52.1633 233.008 52.5353 232.804C52.9193 232.6 53.1833 232.324 53.3273 231.976L55.7753 232.66C55.5353 233.152 55.1933 233.59 54.7493 233.974C54.3173 234.346 53.8013 234.64 53.2013 234.856C52.6133 235.072 51.9593 235.18 51.2393 235.18ZM49.1513 229.402H53.2553C53.2073 229.006 53.0933 228.664 52.9133 228.376C52.7333 228.076 52.4933 227.848 52.1933 227.692C51.8933 227.524 51.5633 227.44 51.2033 227.44C50.8313 227.44 50.4953 227.524 50.1953 227.692C49.9073 227.848 49.6733 228.076 49.4933 228.376C49.3133 228.664 49.1993 229.006 49.1513 229.402ZM56.6125 235.144V232.588C56.9005 232.588 57.1525 232.528 57.3685 232.408C57.5845 232.288 57.7705 232.09 57.9265 231.814C58.0945 231.538 58.2265 231.142 58.3225 230.626C58.4185 230.11 58.4845 229.45 58.5205 228.646L58.6465 225.55H66.1165V235H63.2365V228.07H61.2025L61.1665 228.952C61.1065 230.152 60.9745 231.154 60.7705 231.958C60.5785 232.75 60.2965 233.38 59.9245 233.848C59.5525 234.304 59.0965 234.634 58.5565 234.838C58.0165 235.042 57.3685 235.144 56.6125 235.144ZM72.191 238.834V235H71.957C70.949 235 70.091 234.784 69.383 234.352C68.675 233.908 68.135 233.326 67.763 232.606C67.391 231.886 67.205 231.112 67.205 230.284C67.205 229.444 67.391 228.664 67.763 227.944C68.135 227.224 68.675 226.648 69.383 226.216C70.091 225.772 70.949 225.55 71.957 225.55H72.191V221.86H75.071V225.55H75.323C76.331 225.55 77.189 225.772 77.897 226.216C78.617 226.648 79.157 227.224 79.517 227.944C79.889 228.664 80.075 229.444 80.075 230.284C80.075 231.112 79.889 231.886 79.517 232.606C79.157 233.326 78.617 233.908 77.897 234.352C77.189 234.784 76.331 235 75.323 235H75.071V238.834H72.191ZM71.957 232.714H72.353V227.854H71.957C71.585 227.854 71.249 227.956 70.949 228.16C70.661 228.364 70.433 228.652 70.265 229.024C70.097 229.384 70.013 229.804 70.013 230.284C70.013 230.764 70.097 231.19 70.265 231.562C70.433 231.922 70.661 232.204 70.949 232.408C71.249 232.612 71.585 232.714 71.957 232.714ZM74.927 232.714H75.323C75.695 232.714 76.031 232.612 76.331 232.408C76.631 232.204 76.859 231.922 77.015 231.562C77.183 231.19 77.267 230.764 77.267 230.284C77.267 229.804 77.183 229.384 77.015 229.024C76.847 228.652 76.613 228.364 76.313 228.16C76.025 227.956 75.695 227.854 75.323 227.854H74.927V232.714ZM81.1495 235V225.55H84.0295V231.166L87.6835 225.55H90.3115V235H87.4315V229.546L83.7955 235H81.1495Z" fill="black"/>
<path d="M119.821 48.011H40.33C38.569 48.011 37.142 49.438 37.142 51.199V97.612C37.142 99.375 38.569 100.801 40.33 100.801H119.822C121.584 100.801 123.011 99.374 123.011 97.612V51.199C123.011 49.438 121.583 48.011 119.821 48.011ZM45.392 81.236H45.166C43.404 81.236 41.977 79.807 41.977 78.047V70.764C41.977 69.003 43.404 67.576 45.166 67.576H45.392V81.236ZM106.623 96.408H50.341V52.402H106.623V96.408ZM115.4 78.552C113.111 78.552 111.254 76.697 111.254 74.405C111.254 72.113 113.11 70.258 115.4 70.258C117.691 70.258 119.548 72.113 119.548 74.405C119.548 76.697 117.691 78.552 115.4 78.552Z" fill="#363636"/>
<path d="M91.654 44H68.497V46.758H91.654V44Z" fill="#363636"/>
<path d="M83.608 108.861V105.888H91.654V103.13H68.498V105.888H76.543V141.134C74.404 142.072 72.908 144.206 72.908 146.693V161H87.243V146.693C87.243 144.207 85.748 142.072 83.607 141.136V113.146H88.403L93.454 114.359V107.648L88.403 108.861H83.608Z" fill="#363636"/>
</svg>
