<svg width="160" height="253" viewBox="0 0 160 253" fill="none" xmlns="http://www.w3.org/2000/svg">
<rect width="160" height="160" fill="#FFE17F"/>
<path d="M11.79 207.724C11.79 208.456 11.592 209.068 11.196 209.56C10.812 210.04 10.29 210.4 9.63 210.64C8.97 210.88 8.244 211 7.452 211H1.224V198.22H8.334C8.934 198.22 9.45 198.382 9.882 198.706C10.326 199.018 10.662 199.426 10.89 199.93C11.13 200.434 11.25 200.956 11.25 201.496C11.25 202.096 11.094 202.672 10.782 203.224C10.47 203.764 10.014 204.172 9.414 204.448C10.146 204.664 10.722 205.048 11.142 205.6C11.574 206.152 11.79 206.86 11.79 207.724ZM8.784 207.13C8.784 206.854 8.73 206.614 8.622 206.41C8.514 206.194 8.37 206.026 8.19 205.906C8.022 205.774 7.818 205.708 7.578 205.708H4.176V208.498H7.452C7.704 208.498 7.926 208.438 8.118 208.318C8.322 208.198 8.484 208.036 8.604 207.832C8.724 207.628 8.784 207.394 8.784 207.13ZM4.176 200.74V203.386H7.074C7.29 203.386 7.488 203.338 7.668 203.242C7.86 203.146 8.016 203.002 8.136 202.81C8.256 202.606 8.316 202.354 8.316 202.054C8.316 201.766 8.262 201.526 8.154 201.334C8.058 201.142 7.926 200.998 7.758 200.902C7.59 200.794 7.398 200.74 7.182 200.74H4.176ZM12.9527 211V201.55H15.8327V207.166L19.4867 201.55H22.1147V211H19.2347V205.546L15.5987 211H12.9527ZM29.7128 211.18C29.0048 211.18 28.3868 211.03 27.8588 210.73C27.3308 210.418 26.9168 209.998 26.6168 209.47V214.834H23.7368V201.55H26.2388V203.08C26.5868 202.54 27.0248 202.12 27.5528 201.82C28.0808 201.52 28.6988 201.37 29.4068 201.37C30.0428 201.37 30.6248 201.496 31.1528 201.748C31.6928 202 32.1608 202.348 32.5568 202.792C32.9528 203.236 33.2588 203.752 33.4748 204.34C33.6908 204.928 33.7988 205.564 33.7988 206.248C33.7988 207.184 33.6248 208.024 33.2768 208.768C32.9288 209.512 32.4428 210.1 31.8188 210.532C31.2068 210.964 30.5048 211.18 29.7128 211.18ZM28.7408 208.75C29.0528 208.75 29.3348 208.684 29.5868 208.552C29.8508 208.408 30.0788 208.222 30.2708 207.994C30.4628 207.766 30.6068 207.502 30.7028 207.202C30.8108 206.89 30.8648 206.566 30.8648 206.23C30.8648 205.882 30.8048 205.564 30.6848 205.276C30.5768 204.988 30.4208 204.736 30.2168 204.52C30.0128 204.292 29.7728 204.118 29.4968 203.998C29.2208 203.878 28.9208 203.818 28.5968 203.818C28.4048 203.818 28.2068 203.848 28.0028 203.908C27.8108 203.968 27.6248 204.058 27.4448 204.178C27.2768 204.286 27.1208 204.418 26.9768 204.574C26.8328 204.73 26.7128 204.91 26.6168 205.114V207.058C26.7488 207.382 26.9228 207.67 27.1388 207.922C27.3548 208.174 27.6008 208.378 27.8768 208.534C28.1528 208.678 28.4408 208.75 28.7408 208.75ZM37.0145 211V204.07H34.1525V201.55H42.7565V204.07H39.8945V211H37.0145ZM45.1484 215.14C44.8844 215.14 44.6024 215.11 44.3024 215.05C44.0144 214.99 43.6724 214.9 43.2764 214.78L43.6904 212.404C43.9184 212.488 44.1284 212.554 44.3204 212.602C44.5244 212.65 44.7044 212.674 44.8604 212.674C45.1724 212.674 45.4364 212.578 45.6524 212.386C45.8684 212.206 46.0304 211.924 46.1384 211.54L46.3004 210.982L42.6644 201.55H45.6344L47.8304 208.048L49.7024 201.55H52.4204L48.8744 212.242C48.6824 212.842 48.4004 213.352 48.0284 213.772C47.6564 214.204 47.2244 214.54 46.7324 214.78C46.2404 215.02 45.7124 215.14 45.1484 215.14ZM52.3675 208.174C52.3675 207.55 52.5415 207.004 52.8895 206.536C53.2375 206.068 53.7175 205.702 54.3295 205.438C54.9415 205.162 55.6435 205.024 56.4355 205.024C56.8195 205.024 57.1975 205.06 57.5695 205.132C57.9415 205.192 58.2655 205.282 58.5415 205.402V204.988C58.5415 204.472 58.3855 204.076 58.0735 203.8C57.7615 203.524 57.2875 203.386 56.6515 203.386C56.1235 203.386 55.6255 203.476 55.1575 203.656C54.7015 203.836 54.2155 204.094 53.6995 204.43L52.8355 202.594C53.4595 202.186 54.1075 201.88 54.7795 201.676C55.4635 201.472 56.1835 201.37 56.9395 201.37C58.3555 201.37 59.4535 201.712 60.2335 202.396C61.0255 203.068 61.4215 204.046 61.4215 205.33V207.796C61.4215 208.084 61.4635 208.288 61.5475 208.408C61.6435 208.516 61.8055 208.582 62.0335 208.606V211C61.7935 211.048 61.5655 211.084 61.3495 211.108C61.1455 211.132 60.9655 211.144 60.8095 211.144C60.2695 211.144 59.8555 211.036 59.5675 210.82C59.2915 210.604 59.1175 210.31 59.0455 209.938L58.9915 209.524C58.5715 210.064 58.0675 210.478 57.4795 210.766C56.9035 211.042 56.2975 211.18 55.6615 211.18C55.0375 211.18 54.4735 211.048 53.9695 210.784C53.4775 210.52 53.0875 210.16 52.7995 209.704C52.5115 209.248 52.3675 208.738 52.3675 208.174ZM58.0915 208.534C58.2235 208.426 58.3315 208.306 58.4155 208.174C58.4995 208.042 58.5415 207.916 58.5415 207.796V206.95C58.3015 206.854 58.0315 206.782 57.7315 206.734C57.4435 206.674 57.1735 206.644 56.9215 206.644C56.3935 206.644 55.9555 206.764 55.6075 207.004C55.2595 207.232 55.0855 207.538 55.0855 207.922C55.0855 208.138 55.1455 208.336 55.2655 208.516C55.3855 208.696 55.5475 208.84 55.7515 208.948C55.9675 209.056 56.2195 209.11 56.5075 209.11C56.7955 209.11 57.0835 209.056 57.3715 208.948C57.6595 208.84 57.8995 208.702 58.0915 208.534ZM62.5364 211.144V208.588C62.8244 208.588 63.0764 208.528 63.2924 208.408C63.5084 208.288 63.6944 208.09 63.8504 207.814C64.0184 207.538 64.1504 207.142 64.2464 206.626C64.3424 206.11 64.4084 205.45 64.4444 204.646L64.5704 201.55H72.0404V211H69.1604V204.07H67.1264L67.0904 204.952C67.0304 206.152 66.8984 207.154 66.6944 207.958C66.5024 208.75 66.2204 209.38 65.8484 209.848C65.4764 210.304 65.0204 210.634 64.4804 210.838C63.9404 211.042 63.2924 211.144 62.5364 211.144ZM73.7048 211V201.55H76.5848V204.376H78.6188C79.7588 204.376 80.6348 204.676 81.2468 205.276C81.8708 205.864 82.1828 206.638 82.1828 207.598C82.1828 208.27 82.0508 208.864 81.7868 209.38C81.5348 209.896 81.1568 210.298 80.6528 210.586C80.1608 210.862 79.5428 211 78.7988 211H73.7048ZM76.5848 208.822H78.3308C78.5948 208.822 78.8108 208.774 78.9788 208.678C79.1588 208.57 79.2908 208.426 79.3748 208.246C79.4588 208.054 79.5008 207.844 79.5008 207.616C79.5008 207.388 79.4588 207.19 79.3748 207.022C79.3028 206.842 79.1768 206.698 78.9968 206.59C78.8288 206.482 78.6008 206.428 78.3128 206.428H76.5848V208.822ZM83.2237 211V201.55H86.1037V204.97H89.3257V201.55H92.2057V211H89.3257V207.346H86.1037V211H83.2237ZM93.2556 208.174C93.2556 207.55 93.4296 207.004 93.7776 206.536C94.1256 206.068 94.6056 205.702 95.2176 205.438C95.8296 205.162 96.5316 205.024 97.3236 205.024C97.7076 205.024 98.0856 205.06 98.4576 205.132C98.8296 205.192 99.1536 205.282 99.4296 205.402V204.988C99.4296 204.472 99.2736 204.076 98.9616 203.8C98.6496 203.524 98.1756 203.386 97.5396 203.386C97.0116 203.386 96.5136 203.476 96.0456 203.656C95.5896 203.836 95.1036 204.094 94.5876 204.43L93.7236 202.594C94.3476 202.186 94.9956 201.88 95.6676 201.676C96.3516 201.472 97.0716 201.37 97.8276 201.37C99.2436 201.37 100.342 201.712 101.122 202.396C101.914 203.068 102.31 204.046 102.31 205.33V207.796C102.31 208.084 102.352 208.288 102.436 208.408C102.532 208.516 102.694 208.582 102.922 208.606V211C102.682 211.048 102.454 211.084 102.238 211.108C102.034 211.132 101.854 211.144 101.698 211.144C101.158 211.144 100.744 211.036 100.456 210.82C100.18 210.604 100.006 210.31 99.9336 209.938L99.8796 209.524C99.4596 210.064 98.9556 210.478 98.3676 210.766C97.7916 211.042 97.1856 211.18 96.5496 211.18C95.9256 211.18 95.3616 211.048 94.8576 210.784C94.3656 210.52 93.9756 210.16 93.6876 209.704C93.3996 209.248 93.2556 208.738 93.2556 208.174ZM98.9796 208.534C99.1116 208.426 99.2196 208.306 99.3036 208.174C99.3876 208.042 99.4296 207.916 99.4296 207.796V206.95C99.1896 206.854 98.9196 206.782 98.6196 206.734C98.3316 206.674 98.0616 206.644 97.8096 206.644C97.2816 206.644 96.8436 206.764 96.4956 207.004C96.1476 207.232 95.9736 207.538 95.9736 207.922C95.9736 208.138 96.0336 208.336 96.1536 208.516C96.2736 208.696 96.4356 208.84 96.6396 208.948C96.8556 209.056 97.1076 209.11 97.3956 209.11C97.6836 209.11 97.9716 209.056 98.2596 208.948C98.5476 208.84 98.7876 208.702 98.9796 208.534ZM103.658 211L105.89 207.382C105.35 207.202 104.93 206.89 104.63 206.446C104.33 205.99 104.18 205.402 104.18 204.682C104.18 204.034 104.324 203.476 104.612 203.008C104.912 202.528 105.32 202.162 105.836 201.91C106.364 201.646 106.964 201.514 107.636 201.514H112.478V211H109.598V207.886H108.644L106.808 211H103.658ZM108.032 205.852H109.598V203.692H108.068C107.708 203.692 107.426 203.794 107.222 203.998C107.03 204.19 106.934 204.442 106.934 204.754C106.934 205.078 107.024 205.342 107.204 205.546C107.396 205.75 107.672 205.852 108.032 205.852ZM6.966 235.18C6.258 235.18 5.64 235.03 5.112 234.73C4.584 234.418 4.17 233.998 3.87 233.47V238.834H0.99V225.55H3.492V227.08C3.84 226.54 4.278 226.12 4.806 225.82C5.334 225.52 5.952 225.37 6.66 225.37C7.296 225.37 7.878 225.496 8.406 225.748C8.946 226 9.414 226.348 9.81 226.792C10.206 227.236 10.512 227.752 10.728 228.34C10.944 228.928 11.052 229.564 11.052 230.248C11.052 231.184 10.878 232.024 10.53 232.768C10.182 233.512 9.696 234.1 9.072 234.532C8.46 234.964 7.758 235.18 6.966 235.18ZM5.994 232.75C6.306 232.75 6.588 232.684 6.84 232.552C7.104 232.408 7.332 232.222 7.524 231.994C7.716 231.766 7.86 231.502 7.956 231.202C8.064 230.89 8.118 230.566 8.118 230.23C8.118 229.882 8.058 229.564 7.938 229.276C7.83 228.988 7.674 228.736 7.47 228.52C7.266 228.292 7.026 228.118 6.75 227.998C6.474 227.878 6.174 227.818 5.85 227.818C5.658 227.818 5.46 227.848 5.256 227.908C5.064 227.968 4.878 228.058 4.698 228.178C4.53 228.286 4.374 228.418 4.23 228.574C4.086 228.73 3.966 228.91 3.87 229.114V231.058C4.002 231.382 4.176 231.67 4.392 231.922C4.608 232.174 4.854 232.378 5.13 232.534C5.406 232.678 5.694 232.75 5.994 232.75ZM16.6617 235.18C15.8577 235.18 15.1437 235.054 14.5197 234.802C13.8957 234.538 13.3617 234.184 12.9177 233.74C12.4857 233.296 12.1557 232.786 11.9277 232.21C11.6997 231.622 11.5857 231.01 11.5857 230.374C11.5857 229.462 11.7837 228.634 12.1797 227.89C12.5877 227.134 13.1697 226.528 13.9257 226.072C14.6817 225.604 15.5937 225.37 16.6617 225.37C17.7297 225.37 18.6357 225.598 19.3797 226.054C20.1357 226.51 20.7117 227.11 21.1077 227.854C21.5037 228.586 21.7017 229.384 21.7017 230.248C21.7017 230.416 21.6897 230.584 21.6657 230.752C21.6537 230.908 21.6417 231.046 21.6297 231.166H14.6457C14.6817 231.586 14.7957 231.94 14.9877 232.228C15.1917 232.516 15.4497 232.738 15.7617 232.894C16.0737 233.038 16.4037 233.11 16.7517 233.11C17.1837 233.11 17.5857 233.008 17.9577 232.804C18.3417 232.6 18.6057 232.324 18.7497 231.976L21.1977 232.66C20.9577 233.152 20.6157 233.59 20.1717 233.974C19.7397 234.346 19.2237 234.64 18.6237 234.856C18.0357 235.072 17.3817 235.18 16.6617 235.18ZM14.5737 229.402H18.6777C18.6297 229.006 18.5157 228.664 18.3357 228.376C18.1557 228.076 17.9157 227.848 17.6157 227.692C17.3157 227.524 16.9857 227.44 16.6257 227.44C16.2537 227.44 15.9177 227.524 15.6177 227.692C15.3297 227.848 15.0957 228.076 14.9157 228.376C14.7357 228.664 14.6217 229.006 14.5737 229.402ZM22.053 232.174C22.053 231.55 22.227 231.004 22.575 230.536C22.923 230.068 23.403 229.702 24.015 229.438C24.627 229.162 25.329 229.024 26.121 229.024C26.505 229.024 26.883 229.06 27.255 229.132C27.627 229.192 27.951 229.282 28.227 229.402V228.988C28.227 228.472 28.071 228.076 27.759 227.8C27.447 227.524 26.973 227.386 26.337 227.386C25.809 227.386 25.311 227.476 24.843 227.656C24.387 227.836 23.901 228.094 23.385 228.43L22.521 226.594C23.145 226.186 23.793 225.88 24.465 225.676C25.149 225.472 25.869 225.37 26.625 225.37C28.041 225.37 29.139 225.712 29.919 226.396C30.711 227.068 31.107 228.046 31.107 229.33V231.796C31.107 232.084 31.149 232.288 31.233 232.408C31.329 232.516 31.491 232.582 31.719 232.606V235C31.479 235.048 31.251 235.084 31.035 235.108C30.831 235.132 30.651 235.144 30.495 235.144C29.955 235.144 29.541 235.036 29.253 234.82C28.977 234.604 28.803 234.31 28.731 233.938L28.677 233.524C28.257 234.064 27.753 234.478 27.165 234.766C26.589 235.042 25.983 235.18 25.347 235.18C24.723 235.18 24.159 235.048 23.655 234.784C23.163 234.52 22.773 234.16 22.485 233.704C22.197 233.248 22.053 232.738 22.053 232.174ZM27.777 232.534C27.909 232.426 28.017 232.306 28.101 232.174C28.185 232.042 28.227 231.916 28.227 231.796V230.95C27.987 230.854 27.717 230.782 27.417 230.734C27.129 230.674 26.859 230.644 26.607 230.644C26.079 230.644 25.641 230.764 25.293 231.004C24.945 231.232 24.771 231.538 24.771 231.922C24.771 232.138 24.831 232.336 24.951 232.516C25.071 232.696 25.233 232.84 25.437 232.948C25.653 233.056 25.905 233.11 26.193 233.11C26.481 233.11 26.769 233.056 27.057 232.948C27.345 232.84 27.585 232.702 27.777 232.534ZM32.2218 235.144V232.588C32.5098 232.588 32.7618 232.528 32.9778 232.408C33.1938 232.288 33.3798 232.09 33.5358 231.814C33.7038 231.538 33.8358 231.142 33.9318 230.626C34.0278 230.11 34.0938 229.45 34.1298 228.646L34.2558 225.55H41.7258V235H38.8458V228.07H36.8118L36.7758 228.952C36.7158 230.152 36.5838 231.154 36.3798 231.958C36.1878 232.75 35.9058 233.38 35.5338 233.848C35.1618 234.304 34.7058 234.634 34.1658 234.838C33.6258 235.042 32.9778 235.144 32.2218 235.144ZM43.3903 235V225.55H46.2703V228.376H48.3043C49.4443 228.376 50.3203 228.676 50.9323 229.276C51.5563 229.864 51.8683 230.638 51.8683 231.598C51.8683 232.27 51.7363 232.864 51.4723 233.38C51.2203 233.896 50.8423 234.298 50.3383 234.586C49.8463 234.862 49.2283 235 48.4843 235H43.3903ZM46.2703 232.822H48.0163C48.2803 232.822 48.4963 232.774 48.6643 232.678C48.8443 232.57 48.9763 232.426 49.0603 232.246C49.1443 232.054 49.1863 231.844 49.1863 231.616C49.1863 231.388 49.1443 231.19 49.0603 231.022C48.9883 230.842 48.8623 230.698 48.6823 230.59C48.5143 230.482 48.2863 230.428 47.9983 230.428H46.2703V232.822ZM52.9092 235V225.55H55.7892V228.97H59.0112V225.55H61.8912V235H59.0112V231.346H55.7892V235H52.9092ZM68.0351 235.18C67.2311 235.18 66.5111 235.048 65.8751 234.784C65.2511 234.52 64.7231 234.16 64.2911 233.704C63.8591 233.248 63.5291 232.726 63.3011 232.138C63.0851 231.55 62.9771 230.932 62.9771 230.284C62.9771 229.624 63.0851 229 63.3011 228.412C63.5291 227.824 63.8591 227.302 64.2911 226.846C64.7231 226.39 65.2511 226.03 65.8751 225.766C66.5111 225.502 67.2311 225.37 68.0351 225.37C68.8391 225.37 69.5531 225.502 70.1771 225.766C70.8011 226.03 71.3291 226.39 71.7611 226.846C72.1931 227.302 72.5231 227.824 72.7511 228.412C72.9791 229 73.0931 229.624 73.0931 230.284C73.0931 230.932 72.9791 231.55 72.7511 232.138C72.5231 232.726 72.1931 233.248 71.7611 233.704C71.3291 234.16 70.8011 234.52 70.1771 234.784C69.5531 235.048 68.8391 235.18 68.0351 235.18ZM65.9291 230.284C65.9291 230.776 66.0191 231.208 66.1991 231.58C66.3911 231.952 66.6431 232.24 66.9551 232.444C67.2671 232.648 67.6271 232.75 68.0351 232.75C68.4311 232.75 68.7851 232.648 69.0971 232.444C69.4211 232.228 69.6731 231.934 69.8531 231.562C70.0331 231.19 70.1231 230.764 70.1231 230.284C70.1231 229.792 70.0331 229.36 69.8531 228.988C69.6731 228.616 69.4211 228.328 69.0971 228.124C68.7851 227.92 68.4311 227.818 68.0351 227.818C67.6271 227.818 67.2671 227.92 66.9551 228.124C66.6431 228.328 66.3911 228.616 66.1991 228.988C66.0191 229.36 65.9291 229.792 65.9291 230.284ZM78.6794 235.18C77.8754 235.18 77.1614 235.048 76.5374 234.784C75.9134 234.52 75.3794 234.16 74.9354 233.704C74.5034 233.248 74.1734 232.726 73.9454 232.138C73.7174 231.55 73.6034 230.926 73.6034 230.266C73.6034 229.402 73.8014 228.598 74.1974 227.854C74.6054 227.11 75.1874 226.51 75.9434 226.054C76.6994 225.598 77.6114 225.37 78.6794 225.37C79.7594 225.37 80.6714 225.604 81.4154 226.072C82.1714 226.528 82.7354 227.128 83.1074 227.872L80.2994 228.718C80.1194 228.43 79.8854 228.208 79.5974 228.052C79.3214 227.896 79.0094 227.818 78.6614 227.818C78.2654 227.818 77.9054 227.92 77.5814 228.124C77.2694 228.328 77.0174 228.61 76.8254 228.97C76.6454 229.33 76.5554 229.762 76.5554 230.266C76.5554 230.758 76.6514 231.19 76.8434 231.562C77.0354 231.934 77.2874 232.228 77.5994 232.444C77.9114 232.648 78.2654 232.75 78.6614 232.75C78.9014 232.75 79.1234 232.714 79.3274 232.642C79.5434 232.558 79.7354 232.444 79.9034 232.3C80.0834 232.156 80.2214 231.994 80.3174 231.814L83.1254 232.678C82.8974 233.158 82.5674 233.59 82.1354 233.974C81.7154 234.346 81.2174 234.64 80.6414 234.856C80.0654 235.072 79.4114 235.18 78.6794 235.18ZM86.191 235V228.07H83.329V225.55H91.933V228.07H89.071V235H86.191ZM92.8129 235V225.55H95.6929V228.376H97.7269C98.8669 228.376 99.7429 228.676 100.355 229.276C100.979 229.864 101.291 230.638 101.291 231.598C101.291 232.27 101.159 232.864 100.895 233.38C100.643 233.896 100.265 234.298 99.7609 234.586C99.2689 234.862 98.6509 235 97.9069 235H92.8129ZM95.6929 232.822H97.4389C97.7029 232.822 97.9189 232.774 98.0869 232.678C98.2669 232.57 98.3989 232.426 98.4829 232.246C98.5669 232.054 98.6089 231.844 98.6089 231.616C98.6089 231.388 98.5669 231.19 98.4829 231.022C98.4109 230.842 98.2849 230.698 98.1049 230.59C97.9369 230.482 97.7089 230.428 97.4209 230.428H95.6929V232.822Z" fill="black"/>
<path d="M116.131 86.639V74.003C116.131 72.694 117.176 71.633 118.466 71.633L126.792 73.214V65.02C126.792 62.665 125.084 61.589 122.59 60.755L99.4034 54.175C101.019 55.566 101.292 56.215 101.292 58.571V103.78C101.292 106.136 100.842 107.846 99.3254 108.99L122.59 101.925C124.991 101.092 126.792 97.709 126.792 95.353V87.44L118.466 89.007C117.176 89.009 116.131 87.947 116.131 86.639Z" fill="#363636"/>
<path d="M127.129 74.979L119.531 73.535C118.523 73.535 117.707 74.364 117.707 75.386V85.254C117.707 86.277 118.523 87.106 119.531 87.106L127.129 85.675C128.283 85.256 128.953 84.846 128.953 83.823V76.83C128.953 75.808 128.187 75.323 127.129 74.979Z" fill="#363636"/>
<path d="M99.1704 58.483C99.1704 53.403 94.9384 54.024 94.9384 54.024C94.9384 54.024 37.8324 58.738 34.8384 59.145C31.8444 59.552 32.0014 63.532 32.0014 63.532C32.0014 63.532 32.0004 96.069 32.0004 99.812C32.0004 103.555 34.5994 103.565 34.5994 103.565L51.0764 104.968L59.2124 93.3C59.2124 93.3 60.3214 91.472 61.7174 91.472C63.1144 91.472 64.1494 93.333 64.1494 93.333L73.2104 106.854C73.2104 106.854 92.1054 108.763 95.7314 108.763C99.3574 108.762 99.1704 103.739 99.1704 103.739C99.1704 103.739 99.1704 63.563 99.1704 58.483ZM44.9824 91.192C41.2844 91.192 38.2864 86.591 38.2864 80.917C38.2864 75.243 41.2844 70.642 44.9824 70.642C48.6804 70.642 51.6784 75.243 51.6784 80.917C51.6784 86.591 48.6804 91.192 44.9824 91.192ZM81.1404 92.618C76.4784 92.618 72.6994 87.379 72.6994 80.917C72.6994 74.454 76.4794 69.215 81.1404 69.215C85.8024 69.215 89.5824 74.454 89.5824 80.917C89.5824 87.379 85.8024 92.618 81.1404 92.618Z" fill="#363636"/>
</svg>
