<svg width="161" height="253" viewBox="0 0 161 253" fill="none" xmlns="http://www.w3.org/2000/svg">
<rect x="1" width="160" height="160" fill="#FFE17F"/>
<path d="M3.376 211.108V208.678H4.51C4.822 208.678 5.062 208.618 5.23 208.498C5.398 208.366 5.53 208.162 5.626 207.886L5.788 207.454L0.874 198.22H4.132L7.102 204.466L9.73 198.22H12.844L7.858 209.272C7.51 209.956 7.108 210.436 6.652 210.712C6.208 210.976 5.614 211.108 4.87 211.108H3.376ZM13.3199 211V201.55H16.3259L18.9899 206.608L21.6539 201.55H24.6419V211H21.9059V205.474L19.8719 209.344H18.0899L16.0559 205.474V211H13.3199ZM26.3017 211V201.55H29.1817V204.97H32.4037V201.55H35.2837V211H32.4037V207.346H29.1817V211H26.3017ZM36.9456 211V201.55H39.8256V204.376H41.3556C42.4956 204.376 43.3716 204.676 43.9836 205.276C44.6076 205.864 44.9196 206.638 44.9196 207.598C44.9196 208.27 44.7876 208.864 44.5236 209.38C44.2716 209.896 43.8936 210.298 43.3896 210.586C42.8856 210.862 42.2676 211 41.5356 211H36.9456ZM39.8256 208.822H41.0676C41.3316 208.822 41.5476 208.774 41.7156 208.678C41.8956 208.57 42.0276 208.426 42.1116 208.246C42.1956 208.054 42.2376 207.844 42.2376 207.616C42.2376 207.388 42.1956 207.19 42.1116 207.022C42.0276 206.842 41.8956 206.698 41.7156 206.59C41.5476 206.482 41.3256 206.428 41.0496 206.428H39.8256V208.822ZM46.3416 211V201.55H49.2216V211H46.3416ZM55.3766 211.18C54.5726 211.18 53.8586 211.054 53.2346 210.802C52.6106 210.538 52.0766 210.184 51.6326 209.74C51.2006 209.296 50.8706 208.786 50.6426 208.21C50.4146 207.622 50.3006 207.01 50.3006 206.374C50.3006 205.462 50.4986 204.634 50.8946 203.89C51.3026 203.134 51.8846 202.528 52.6406 202.072C53.3966 201.604 54.3086 201.37 55.3766 201.37C56.4446 201.37 57.3506 201.598 58.0946 202.054C58.8506 202.51 59.4266 203.11 59.8226 203.854C60.2186 204.586 60.4166 205.384 60.4166 206.248C60.4166 206.416 60.4046 206.584 60.3806 206.752C60.3686 206.908 60.3566 207.046 60.3446 207.166H53.3606C53.3966 207.586 53.5106 207.94 53.7026 208.228C53.9066 208.516 54.1646 208.738 54.4766 208.894C54.7886 209.038 55.1186 209.11 55.4666 209.11C55.8986 209.11 56.3006 209.008 56.6726 208.804C57.0566 208.6 57.3206 208.324 57.4646 207.976L59.9126 208.66C59.6726 209.152 59.3306 209.59 58.8866 209.974C58.4546 210.346 57.9386 210.64 57.3386 210.856C56.7506 211.072 56.0966 211.18 55.3766 211.18ZM53.2886 205.402H57.3926C57.3446 205.006 57.2306 204.664 57.0506 204.376C56.8706 204.076 56.6306 203.848 56.3306 203.692C56.0306 203.524 55.7006 203.44 55.3406 203.44C54.9686 203.44 54.6326 203.524 54.3326 203.692C54.0446 203.848 53.8106 204.076 53.6306 204.376C53.4506 204.664 53.3366 205.006 53.2886 205.402ZM70.423 211V207.814C70.075 207.97 69.727 208.084 69.379 208.156C69.031 208.216 68.623 208.246 68.155 208.246C67.183 208.246 66.403 207.982 65.815 207.454C65.239 206.914 64.951 206.134 64.951 205.114V201.55H67.831V204.736C67.831 205.18 67.933 205.516 68.137 205.744C68.341 205.96 68.659 206.068 69.091 206.068C69.319 206.068 69.547 206.05 69.775 206.014C70.015 205.966 70.231 205.894 70.423 205.798V201.55H73.303V211H70.423ZM74.3565 208.174C74.3565 207.55 74.5305 207.004 74.8785 206.536C75.2265 206.068 75.7065 205.702 76.3185 205.438C76.9305 205.162 77.6325 205.024 78.4245 205.024C78.8085 205.024 79.1865 205.06 79.5585 205.132C79.9305 205.192 80.2545 205.282 80.5305 205.402V204.988C80.5305 204.472 80.3745 204.076 80.0625 203.8C79.7505 203.524 79.2765 203.386 78.6405 203.386C78.1125 203.386 77.6145 203.476 77.1465 203.656C76.6905 203.836 76.2045 204.094 75.6885 204.43L74.8245 202.594C75.4485 202.186 76.0965 201.88 76.7685 201.676C77.4525 201.472 78.1725 201.37 78.9285 201.37C80.3445 201.37 81.4425 201.712 82.2225 202.396C83.0145 203.068 83.4105 204.046 83.4105 205.33V207.796C83.4105 208.084 83.4525 208.288 83.5365 208.408C83.6325 208.516 83.7945 208.582 84.0225 208.606V211C83.7825 211.048 83.5545 211.084 83.3385 211.108C83.1345 211.132 82.9545 211.144 82.7985 211.144C82.2585 211.144 81.8445 211.036 81.5565 210.82C81.2805 210.604 81.1065 210.31 81.0345 209.938L80.9805 209.524C80.5605 210.064 80.0565 210.478 79.4685 210.766C78.8925 211.042 78.2865 211.18 77.6505 211.18C77.0265 211.18 76.4625 211.048 75.9585 210.784C75.4665 210.52 75.0765 210.16 74.7885 209.704C74.5005 209.248 74.3565 208.738 74.3565 208.174ZM80.0805 208.534C80.2125 208.426 80.3205 208.306 80.4045 208.174C80.4885 208.042 80.5305 207.916 80.5305 207.796V206.95C80.2905 206.854 80.0205 206.782 79.7205 206.734C79.4325 206.674 79.1625 206.644 78.9105 206.644C78.3825 206.644 77.9445 206.764 77.5965 207.004C77.2485 207.232 77.0745 207.538 77.0745 207.922C77.0745 208.138 77.1345 208.336 77.2545 208.516C77.3745 208.696 77.5365 208.84 77.7405 208.948C77.9565 209.056 78.2085 209.11 78.4965 209.11C78.7845 209.11 79.0725 209.056 79.3605 208.948C79.6485 208.84 79.8885 208.702 80.0805 208.534ZM89.6553 211.18C88.8513 211.18 88.1373 211.048 87.5133 210.784C86.8893 210.52 86.3553 210.16 85.9113 209.704C85.4793 209.248 85.1493 208.726 84.9213 208.138C84.6933 207.55 84.5793 206.926 84.5793 206.266C84.5793 205.402 84.7773 204.598 85.1733 203.854C85.5813 203.11 86.1633 202.51 86.9193 202.054C87.6753 201.598 88.5873 201.37 89.6553 201.37C90.7353 201.37 91.6473 201.604 92.3913 202.072C93.1473 202.528 93.7113 203.128 94.0833 203.872L91.2753 204.718C91.0953 204.43 90.8613 204.208 90.5733 204.052C90.2973 203.896 89.9853 203.818 89.6373 203.818C89.2413 203.818 88.8813 203.92 88.5573 204.124C88.2453 204.328 87.9933 204.61 87.8013 204.97C87.6213 205.33 87.5313 205.762 87.5313 206.266C87.5313 206.758 87.6273 207.19 87.8193 207.562C88.0113 207.934 88.2633 208.228 88.5753 208.444C88.8873 208.648 89.2413 208.75 89.6373 208.75C89.8773 208.75 90.0993 208.714 90.3033 208.642C90.5193 208.558 90.7113 208.444 90.8793 208.3C91.0593 208.156 91.1973 207.994 91.2933 207.814L94.1013 208.678C93.8733 209.158 93.5433 209.59 93.1113 209.974C92.6913 210.346 92.1933 210.64 91.6173 210.856C91.0413 211.072 90.3873 211.18 89.6553 211.18ZM95.061 211V201.55H97.941V204.376H99.471C100.611 204.376 101.487 204.676 102.099 205.276C102.723 205.864 103.035 206.638 103.035 207.598C103.035 208.27 102.903 208.864 102.639 209.38C102.387 209.896 102.009 210.298 101.505 210.586C101.001 210.862 100.383 211 99.651 211H95.061ZM97.941 208.822H99.183C99.447 208.822 99.663 208.774 99.831 208.678C100.011 208.57 100.143 208.426 100.227 208.246C100.311 208.054 100.353 207.844 100.353 207.616C100.353 207.388 100.311 207.19 100.227 207.022C100.143 206.842 100.011 206.698 99.831 206.59C99.663 206.482 99.441 206.428 99.165 206.428H97.941V208.822ZM104.457 211V201.55H107.337V211H104.457Z" fill="black"/>
<path d="M107.494 64.197H105.979V59.557C105.979 54.505 101.892 50.371 96.897 50.371H62.082C57.086 50.372 53 54.505 53 59.557V102.425C53 107.477 57.087 111.61 62.083 111.61H96.898C101.893 111.61 105.98 107.477 105.98 102.425V99.01H107.495C107.91 99.01 108.252 98.666 108.252 98.246V84.467C108.252 84.046 107.91 83.701 107.495 83.701H105.98V74.913H107.495C108.327 74.913 109.009 74.225 109.009 73.382V65.728C109.008 64.886 108.326 64.197 107.494 64.197ZM87.082 61.088C90.008 61.088 92.381 63.486 92.381 66.446C92.381 69.406 90.008 71.804 87.082 71.804C84.156 71.804 81.784 69.406 81.784 66.446C81.784 63.486 84.156 61.088 87.082 61.088ZM71.945 61.088C74.87 61.088 77.243 63.486 77.243 66.446C77.243 69.406 74.87 71.804 71.945 71.804C69.019 71.804 66.647 69.406 66.647 66.446C66.647 63.486 69.019 61.088 71.945 61.088ZM58.297 81.397C58.297 78.438 60.668 76.039 63.595 76.039C66.521 76.039 68.893 78.438 68.893 81.397C68.893 84.356 66.52 86.755 63.595 86.755C60.668 86.756 58.297 84.356 58.297 81.397ZM71.945 100.894C69.019 100.894 66.647 98.496 66.647 95.536C66.647 92.576 69.019 90.178 71.945 90.178C74.87 90.178 77.243 92.576 77.243 95.536C77.243 98.496 74.87 100.894 71.945 100.894ZM73.435 80.991C73.435 77.609 76.146 74.867 79.49 74.867C82.834 74.867 85.545 77.609 85.545 80.991C85.545 84.373 82.834 87.115 79.49 87.115C76.146 87.114 73.435 84.373 73.435 80.991ZM87.082 100.894C84.156 100.894 81.784 98.496 81.784 95.536C81.784 92.576 84.156 90.178 87.082 90.178C90.008 90.178 92.381 92.576 92.381 95.536C92.381 98.496 90.008 100.894 87.082 100.894ZM95.384 86.756C92.457 86.756 90.086 84.357 90.086 81.398C90.086 78.439 92.457 76.04 95.384 76.04C98.31 76.04 100.682 78.439 100.682 81.398C100.682 84.356 98.31 86.756 95.384 86.756Z" fill="#363636"/>
<path d="M62.646 47.31H96.333C97.176 47.31 97.765 46.629 97.639 45.796L96.023 35.028C96.023 35.028 96.023 35.027 96.021 35.026C95.771 33.362 94.189 32 92.506 32H66.474C64.788 32 63.206 33.362 62.957 35.028L61.342 45.795C61.217 46.628 61.803 47.31 62.646 47.31Z" fill="#363636"/>
<path d="M96.333 114.671H62.646C61.803 114.671 61.217 115.354 61.342 116.187L62.957 126.954C63.207 128.62 64.789 129.982 66.473 129.982H92.505C94.189 129.982 95.771 128.62 96.022 126.956V126.954L97.637 116.187C97.765 115.354 97.176 114.671 96.333 114.671Z" fill="#363636"/>
</svg>
